<svg width="50" height="50" fill="none" xmlns="http://www.w3.org/2000/svg"><g filter="url(#a)"><rect width="50" height="50" rx="12" fill="#252639"/><rect x=".2" y=".2" width="49.6" height="49.6" rx="11.8" stroke="url(#b)" stroke-opacity=".4" stroke-width=".4"/><path d="M36.565 25.936a.936.936 0 0 0 .938-.938.928.928 0 0 0-.938-.938h-1.562v-2.75h1.562a.928.928 0 0 0 .938-.937.936.936 0 0 0-.938-.938h-1.85a6.22 6.22 0 0 0-4.15-4.15v-1.85a.944.944 0 0 0-.937-.937.944.944 0 0 0-.938.938v1.562h-2.75v-1.563a.944.944 0 0 0-.937-.937.944.944 0 0 0-.938.938v1.562h-2.737v-1.563a.944.944 0 0 0-.938-.937.936.936 0 0 0-.937.938v1.85c-2 .6-3.563 2.162-4.163 4.15h-1.85a.944.944 0 0 0-.937.937c0 .525.425.938.937.938h1.563v2.75H13.44a.936.936 0 0 0-.937.937c0 .512.425.938.937.938h1.563v2.75H13.44a.936.936 0 0 0-.937.937c0 .512.425.938.937.938h1.85c.588 1.987 2.163 3.55 4.163 4.15v1.85c0 .512.412.937.937.937a.944.944 0 0 0 .938-.938v-1.562h2.75v1.563c0 .512.412.937.937.937a.944.944 0 0 0 .938-.938v-1.562h2.737v1.563c0 .512.425.937.938.937a.944.944 0 0 0 .937-.938v-1.85a6.22 6.22 0 0 0 4.15-4.15h1.85a.936.936 0 0 0 .938-.937.928.928 0 0 0-.938-.938h-1.562v-2.75h1.562zm-4.987 1.887a3.761 3.761 0 0 1-3.75 3.75h-5.65a3.761 3.761 0 0 1-3.75-3.75v-5.65a3.761 3.761 0 0 1 3.75-3.75h5.65a3.761 3.761 0 0 1 3.75 3.75v5.65z" fill="#fff"/><path d="M22.528 30.31h4.962a2.835 2.835 0 0 0 2.838-2.837v-4.962a2.835 2.835 0 0 0-2.838-2.838h-4.962a2.835 2.835 0 0 0-2.838 2.838v4.962a2.827 2.827 0 0 0 2.838 2.838z" fill="#fff"/></g><defs><linearGradient id="b" x1="-43.023" y1="-46.23" x2="60.898" y2="54.499" gradientUnits="userSpaceOnUse"><stop stop-color="#fff"/><stop offset="1" stop-color="#3F4168"/></linearGradient><filter id="a" x="0" y="0" width="50" height="50" filterUnits="userSpaceOnUse" color-interpolation-filters="sRGB"><feFlood flood-opacity="0" result="BackgroundImageFix"/><feBlend in="SourceGraphic" in2="BackgroundImageFix" result="shape"/><feColorMatrix in="SourceAlpha" values="0 0 0 0 0 0 0 0 0 0 0 0 0 0 0 0 0 0 127 0" result="hardAlpha"/><feMorphology radius="4.417" in="SourceAlpha" result="effect1_innerShadow_182_369"/><feOffset/><feGaussianBlur stdDeviation="3.621"/><feComposite in2="hardAlpha" operator="arithmetic" k2="-1" k3="1"/><feColorMatrix values="0 0 0 0 0.266667 0 0 0 0 0.27451 0 0 0 0 0.439216 0 0 0 0.18 0"/><feBlend in2="shape" result="effect1_innerShadow_182_369"/></filter></defs></svg>