<svg width="40" height="40" viewBox="0 0 40 40" fill="none" xmlns="http://www.w3.org/2000/svg">
<rect width="40" height="40" rx="20" fill="url(#paint0_linear_340_1955)"/>
<g clip-path="url(#clip0_340_1955)">
<path d="M9.00501 18.5847C8.95723 18.9693 9.25711 19.3088 9.6446 19.3088H12.2668C12.4192 19.3087 12.5667 19.2547 12.6831 19.1563C12.7995 19.0578 12.8772 18.9213 12.9024 18.771C13.4071 15.7655 15.7654 13.4072 18.7708 12.9025C18.9212 12.8773 19.0577 12.7996 19.1561 12.6832C19.2546 12.5668 19.3086 12.4193 19.3086 12.2669V9.64469C19.3086 9.2572 18.9692 8.95732 18.5846 9.0051C16.1667 9.30559 13.8826 10.4236 12.153 12.1531C10.4235 13.8827 9.30549 16.1668 9.00501 18.5847ZM24.1068 25.7871C22.8834 26.6606 21.449 27.1222 19.9586 27.1222C16.4514 27.1222 13.4839 24.609 12.9025 21.1462C12.8772 20.9959 12.7995 20.8594 12.6831 20.7609C12.5668 20.6625 12.4193 20.6084 12.2669 20.6084H9.6446C9.25711 20.6084 8.95723 20.9479 9.00501 21.3324C9.68998 26.8438 14.399 31.0001 19.9586 31.0001C22.4353 31.0001 24.7775 30.1962 26.7321 28.6753C27.038 28.4373 27.0661 27.985 26.792 27.7109L24.9371 25.8559C24.8292 25.748 24.6865 25.6819 24.5345 25.6693C24.3825 25.6567 24.2309 25.6985 24.1068 25.7871ZM21.1461 12.9025C24.6089 13.484 27.1222 16.4515 27.1222 19.9587C27.1222 21.4491 26.6605 22.8835 25.7871 24.1069C25.6984 24.231 25.6567 24.3826 25.6693 24.5346C25.6819 24.6866 25.748 24.8292 25.8559 24.9371L27.7109 26.7921C27.985 27.0662 28.4372 27.0381 28.6753 26.7322C30.1961 24.7777 31 22.4354 31 19.9587C31 14.3991 26.8438 9.69007 21.3324 9.0051C20.9478 8.95732 20.6083 9.2572 20.6083 9.64469V12.2669C20.6083 12.4193 20.6623 12.5668 20.7608 12.6832C20.8593 12.7996 20.9958 12.8773 21.1461 12.9025Z" fill="white" fill-opacity="0.8"/>
<path d="M20.3881 15.5297H19.5282C19.1722 15.5297 18.8836 15.8183 18.8836 16.1742V23.6937H21.0326V16.1742C21.0326 15.8183 20.744 15.5297 20.3881 15.5297ZM22.3217 23.6937H23.8261C24.182 23.6937 24.4706 23.4051 24.4706 23.0491V17.8929C24.4706 17.537 24.182 17.2484 23.8261 17.2484H22.3217V23.6937ZM17.5946 18.9672H16.0918C15.7358 18.9672 15.4473 19.2557 15.4473 19.6117V23.0491C15.4473 23.4051 15.7358 23.6937 16.0918 23.6937H17.5946V18.9672Z" fill="white"/>
</g>
<defs>
<linearGradient id="paint0_linear_340_1955" x1="12.5" y1="36" x2="37" y2="7.5" gradientUnits="userSpaceOnUse">
<stop stop-color="#DB50D1"/>
<stop offset="1" stop-color="#FF688F"/>
</linearGradient>
<clipPath id="clip0_340_1955">
<rect width="22" height="22" fill="white" transform="translate(9 9)"/>
</clipPath>
</defs>
</svg>
