<svg width="20" height="16" viewBox="0 0 20 16" fill="none" xmlns="http://www.w3.org/2000/svg">
<path d="M10.0044 15.9981C9.86451 15.9993 9.72678 15.9637 9.60496 15.895C8.5623 15.2911 0.845464 10.4566 0.552918 10.3047C0.443388 10.2535 0.349014 10.1747 0.279007 10.0761C0.209 9.97752 0.16575 9.86245 0.15348 9.74215V2.95359C0.150885 2.82904 0.179987 2.70587 0.238048 2.59566C0.296108 2.48544 0.381227 2.39179 0.48541 2.32349L0.541667 2.29161C1.29178 1.82841 3.7878 0.3038 4.18349 0.0843905C4.27429 0.0302421 4.37782 0.00112203 4.48353 0C4.58223 0.000970491 4.6793 0.0253968 4.7667 0.071262C4.7667 0.071262 8.26412 2.35162 8.79858 2.55415C9.17415 2.72662 9.58368 2.81249 9.9969 2.80544C10.4648 2.81484 10.927 2.7017 11.3377 2.47726C11.8609 2.20159 15.2027 0.0825133 15.2383 0.0825133C15.3227 0.0319305 15.4194 0.00594834 15.5178 0.00750277C15.6236 0.00807799 15.7272 0.037232 15.8178 0.0918875C16.2735 0.343177 19.3715 2.2391 19.5028 2.32349C19.6098 2.3881 19.698 2.47952 19.7589 2.58871C19.8197 2.69791 19.851 2.82109 19.8497 2.94608V9.73465C19.8383 9.85522 19.7954 9.97069 19.7253 10.0694C19.6552 10.1682 19.5603 10.2468 19.4502 10.2972C19.1596 10.4566 11.4653 15.2968 10.402 15.8875C10.2811 15.9595 10.1433 15.9983 10.0025 16" fill="url(#paint0_linear_340_1942)"/>
<path d="M9.96484 15.9983H10.0042C10.1441 15.9995 10.2818 15.9639 10.4037 15.8952C11.4463 15.2913 19.1594 10.4568 19.452 10.3049C19.562 10.2545 19.6569 10.1759 19.727 10.0771C19.7971 9.97838 19.84 9.86292 19.8514 9.74234V2.95378C19.853 2.83876 19.8273 2.72499 19.7764 2.62186L9.96672 8.0077V15.9927" fill="url(#paint1_linear_340_1942)"/>
<path d="M9.93099 15.9023H9.89162C9.75295 15.9032 9.61648 15.8677 9.49593 15.7991C8.46451 15.2028 0.833944 10.4152 0.545149 10.2689C0.43659 10.2193 0.342927 10.1422 0.273498 10.0451C0.204069 9.94802 0.161303 9.83444 0.149464 9.71569V3.00026C0.148117 2.88648 0.173826 2.77399 0.224475 2.67209L9.93099 8.00167V15.9023Z" fill="url(#paint2_linear_340_1942)"/>
<defs>
<linearGradient id="paint0_linear_340_1942" x1="0.224291" y1="8.02839" x2="19.7467" y2="7.87171" gradientUnits="userSpaceOnUse">
<stop stop-color="#FFB900"/>
<stop offset="0.34" stop-color="#F38000"/>
<stop offset="0.57" stop-color="#F83C72"/>
<stop offset="0.78" stop-color="#FC1CBE"/>
<stop offset="0.93" stop-color="#FE08ED"/>
<stop offset="1" stop-color="#FF00FF"/>
</linearGradient>
<linearGradient id="paint1_linear_340_1942" x1="5.70795" y1="14.4107" x2="25.6064" y2="3.40128" gradientUnits="userSpaceOnUse">
<stop stop-color="#EE0A3F"/>
<stop offset="1" stop-color="#EE0A3F" stop-opacity="0"/>
</linearGradient>
<linearGradient id="paint2_linear_340_1942" x1="7.81056" y1="11.2277" x2="-1.799" y2="3.48836" gradientUnits="userSpaceOnUse">
<stop stop-color="#ED6600"/>
<stop offset="1" stop-color="#F98200"/>
</linearGradient>
</defs>
</svg>
