<svg width="18" height="18" viewBox="0 0 18 18" fill="none" xmlns="http://www.w3.org/2000/svg">
<path d="M14.8943 18C15.2925 17.9826 15.6706 17.8198 15.957 17.5425C16.2433 17.2651 16.4181 16.8924 16.4482 16.4949V16.3955L17.0263 4.70056C17.0263 4.70056 17.0263 4.68876 17.0263 4.68202C17.0263 4.59262 16.9908 4.50689 16.9276 4.44367C16.8643 4.38046 16.7786 4.34494 16.6892 4.34494H12.9611C12.8701 1.92809 11.1325 0 9.00382 0C6.87517 0 5.13753 1.9264 5.04652 4.34494H1.31169C1.22229 4.34494 1.13655 4.38046 1.07334 4.44367C1.01012 4.50689 0.974609 4.59262 0.974609 4.68202C0.974609 4.69101 0.974609 4.7 0.974609 4.70899L1.50382 16.3584V16.5051C1.58472 17.3157 2.17798 17.968 2.98191 17.9983H14.8842L14.8943 18ZM9.00382 1.05168C10.5561 1.05168 11.8201 2.51461 11.8791 4.34494H6.12854C6.18753 2.50787 7.45157 1.05168 9.00382 1.05168Z" fill="#EE4E2C"/>
<path d="M11.9623 13.4817C11.9146 13.9031 11.7538 14.3037 11.4968 14.6411C11.2399 14.9785 10.8964 15.24 10.5028 15.398C10.0091 15.5984 9.47772 15.6893 8.94546 15.6643C8.20675 15.6395 7.48244 15.4531 6.82355 15.1182C6.52161 14.9525 6.23656 14.7578 5.97243 14.5368C5.91175 14.4862 5.88142 14.4424 5.93872 14.3682C5.99602 14.2941 6.24378 13.9233 6.2758 13.8626C6.28683 13.845 6.30173 13.8302 6.31935 13.8193C6.33696 13.8083 6.35685 13.8015 6.37748 13.7994C6.39811 13.7973 6.41895 13.7999 6.43842 13.8071C6.45789 13.8142 6.47548 13.8257 6.48985 13.8407L6.59602 13.9216C7.26629 14.4569 8.08718 14.7692 8.94378 14.8148C10.0831 14.7997 10.9106 14.2924 11.0573 13.5053C11.2258 12.639 10.528 11.8957 9.20333 11.4828C8.62925 11.2901 8.06655 11.065 7.51793 10.8087C6.59097 10.2682 6.15838 9.56091 6.22018 8.68675C6.31456 7.47832 7.44209 6.57158 8.87468 6.56653C9.52381 6.567 10.1663 6.69766 10.764 6.9508C11.0203 7.06301 11.2667 7.19662 11.5005 7.35024C11.5186 7.35989 11.5344 7.37325 11.5469 7.38945C11.5594 7.40565 11.5683 7.42432 11.5731 7.44422C11.5779 7.46412 11.5784 7.48481 11.5746 7.50492C11.5708 7.52504 11.5628 7.54412 11.5511 7.56091C11.4938 7.65529 11.3269 7.91653 11.2578 8.02608C11.2089 8.10024 11.1466 8.10866 11.0606 8.05473C10.4201 7.62444 9.66813 7.39017 8.89659 7.38057C7.91906 7.39911 7.18086 7.9772 7.13198 8.76934C7.1185 9.48395 7.66625 10.003 8.82749 10.3991C11.2258 11.1643 12.1393 12.071 11.9623 13.4817Z" fill="white"/>
</svg>
