<?xml version="1.0" encoding="UTF-8"?>
<svg width="32px" height="32px" viewBox="0 0 32 32" version="1.1" xmlns="http://www.w3.org/2000/svg" xmlns:xlink="http://www.w3.org/1999/xlink">
    <title>facebook</title>
    <g id="Page-1" stroke="none" stroke-width="1" fill="none" fill-rule="evenodd">
        <g id="facebook" fill-rule="nonzero">
            <path d="M16,0 C20.4444333,0 24.2222333,1.55556667 27.3333333,4.66666667 C30.4444333,7.77776667 32,11.5555667 32,16 C32,20.4 30.4444333,24.1666667 27.3333333,27.3 C24.2222333,30.4333333 20.4444333,32 16,32 C11.5555667,32 7.77776667,30.4333333 4.66666667,27.3 C1.55556667,24.1666667 0,20.4 0,16 C0,11.5555667 1.55556667,7.77776667 4.66666667,4.66666667 C7.77776667,1.55556667 11.5555667,0 16,0 C16,0 16,0 16,0" id="Path" fill="#55597B"></path>
            <path d="M19.8,11 C19.8,11 19.8,8.4 19.8,8.4 C19.8,8.4 17.4,8.4 17.4,8.4 C16.4222333,8.4 15.6,8.76666667 14.9333333,9.5 C14.2666667,10.2333333 13.9333333,11.1333333 13.9333333,12.2 C13.9333333,12.2 13.9333333,13.6666667 13.9333333,13.6666667 C13.9333333,13.6666667 11.4,13.6666667 11.4,13.6666667 C11.4,13.6666667 11.4,16.1333333 11.4,16.1333333 C11.4,16.1333333 13.9333333,16.1333333 13.9333333,16.1333333 C13.9333333,16.1333333 13.9333333,23.5333333 13.9333333,23.5333333 C13.9333333,23.5333333 16.8,23.5333333 16.8,23.5333333 C16.8,23.5333333 16.8,16.1333333 16.8,16.1333333 C16.8,16.1333333 19.8,16.1333333 19.8,16.1333333 C19.8,16.1333333 19.8,13.6666667 19.8,13.6666667 C19.8,13.6666667 16.8,13.6666667 16.8,13.6666667 C16.8,13.6666667 16.8,11.9333333 16.8,11.9333333 C16.8,11.3111 17,11 17.4,11 C17.4,11 19.8,11 19.8,11 C19.8,11 19.8,11 19.8,11" id="Path" fill="#FFFFFF"></path>
        </g>
    </g>
</svg>