<svg width="54" height="54" viewBox="0 0 54 54" fill="none" xmlns="http://www.w3.org/2000/svg">
<rect width="54" height="54" rx="27" fill="url(#paint0_linear_340_979)"/>
<g clip-path="url(#clip0_340_979)">
<path d="M32.9916 40.2579C36.2043 40.2579 38.8181 37.6764 38.8181 34.5033C38.8181 31.3302 36.2043 28.7487 32.9916 28.7487C31.6225 28.7487 29.9842 29.5404 27.9832 31.169C27.9734 31.177 27.9638 31.1849 27.9541 31.1928L30.3687 33.5885C32.2152 32.1298 32.9598 32.1122 32.9916 32.1122C34.3265 32.1122 35.4126 33.1848 35.4126 34.5032C35.4126 35.8217 34.3266 36.8943 32.9916 36.8943C32.9584 36.8943 32.1563 36.8756 30.1489 35.2418C29.9168 35.0529 26.1493 31.4375 25.8194 31.169C23.8183 29.5404 22.18 28.7487 20.8109 28.7487C17.5982 28.7487 14.9844 31.3302 14.9844 34.5033C14.9844 37.6764 17.5982 40.2579 20.8109 40.2579C22.18 40.2579 23.8183 39.4662 25.8193 37.8375C25.8284 37.8301 25.8373 37.8228 25.8463 37.8154L23.4394 35.4135C21.5892 36.8763 20.8428 36.8944 20.8109 36.8944C19.476 36.8944 18.3899 35.8218 18.3899 34.5033C18.3899 33.1848 19.4759 32.1122 20.8109 32.1122C20.8437 32.1122 21.7307 32.0264 23.6275 33.7435C24.5951 34.6195 27.7421 37.6547 27.9831 37.8376C30.0394 39.3978 31.6225 40.2579 32.9916 40.2579Z" fill="white" fill-opacity="0.8"/>
</g>
<path d="M15.1647 25.3353V19.5993H14.1818V18.1518H15.1647V17.6065C15.1647 16.1927 15.8312 15.5329 17.5412 15.5329C17.9048 15.5329 18.3154 15.5733 18.5443 15.6205V16.9198C18.403 16.8929 18.2077 16.8794 18.0125 16.8794C17.3662 16.8794 17.0834 17.1622 17.0834 17.6738V18.1518H18.5174V19.5993H17.1305V25.3353H15.1647ZM19.5542 25.3353V18.1182H21.4527V19.4175H21.4931C21.749 18.5019 22.3616 18.0037 23.2099 18.0037C23.4388 18.0037 23.634 18.0374 23.7687 18.0778V19.808C23.6071 19.7407 23.3378 19.6935 23.055 19.6935C22.0856 19.6935 21.52 20.286 21.52 21.3026V25.3353H19.5542ZM29.1142 23.1271H30.9184C30.703 24.5408 29.4104 25.4901 27.6263 25.4901C25.4046 25.4901 24.0716 24.0696 24.0716 21.7604C24.0716 19.4579 25.4181 17.9633 27.5522 17.9633C29.6527 17.9633 30.979 19.3839 30.979 21.5786V22.1778H26.0038V22.299C26.0038 23.329 26.6568 24.0359 27.66 24.0359C28.3803 24.0359 28.9324 23.6791 29.1142 23.1271ZM27.5724 19.4175C26.7107 19.4175 26.0913 20.0706 26.024 20.9727H29.0872C29.0468 20.0504 28.4477 19.4175 27.5724 19.4175ZM36.7756 23.1271H38.5799C38.3644 24.5408 37.0718 25.4901 35.2877 25.4901C33.0661 25.4901 31.733 24.0696 31.733 21.7604C31.733 19.4579 33.0795 17.9633 35.2137 17.9633C37.3142 17.9633 38.6405 19.3839 38.6405 21.5786V22.1778H33.6652V22.299C33.6652 23.329 34.3183 24.0359 35.3214 24.0359C36.0418 24.0359 36.5938 23.6791 36.7756 23.1271ZM35.2339 19.4175C34.3721 19.4175 33.7528 20.0706 33.6854 20.9727H36.7487C36.7083 20.0504 36.1091 19.4175 35.2339 19.4175Z" fill="white"/>
<defs>
<linearGradient id="paint0_linear_340_979" x1="27" y1="0" x2="27" y2="54" gradientUnits="userSpaceOnUse">
<stop stop-color="#01E3CA"/>
<stop offset="1" stop-color="#00ACE6"/>
</linearGradient>
<clipPath id="clip0_340_979">
<rect width="23.8337" height="20.4289" fill="white" transform="translate(14.9844 21.2358)"/>
</clipPath>
</defs>
</svg>
