<svg width="97" height="145" viewBox="0 0 97 145" fill="none" xmlns="http://www.w3.org/2000/svg">
<path d="M96.5 1C23.5002 43 -34.0001 101.5 45.5 144.5" stroke="url(#paint0_linear_212_438)"/>
<path d="M56.7903 26.0848C58.1333 27.4361 58.1333 29.6292 56.7903 30.9806C55.4474 32.3319 53.2679 32.3319 51.9249 30.9806C50.582 29.6292 50.582 27.4361 51.9249 26.0848C53.2679 24.7335 55.4474 24.7335 56.7903 26.0848Z" fill="white"/>
<path d="M52.2946 34.082C52.2451 34.082 52.1901 34.0709 52.1405 34.0543C50.9022 33.5558 49.9005 32.6752 49.229 31.5122C48.5795 30.3769 48.3209 29.092 48.4915 27.785C48.519 27.5579 48.7336 27.3973 48.9538 27.425C49.1794 27.4527 49.3391 27.6631 49.3115 27.8902C49.1684 29.0089 49.3886 30.1166 49.9445 31.0913C50.5169 32.0882 51.381 32.8469 52.4432 33.2734C52.6524 33.362 52.757 33.6001 52.6744 33.8161C52.6139 33.9822 52.4542 34.082 52.2946 34.082Z" fill="white" fill-opacity="0.8"/>
<path d="M50.9728 24.5781C50.8517 24.5781 50.7307 24.5227 50.6481 24.4175C50.505 24.2347 50.538 23.9744 50.7197 23.836C51.7709 23.0108 53.0258 22.5732 54.3577 22.5732C55.6566 22.5732 56.895 22.9942 57.9352 23.7917C58.1168 23.9301 58.1498 24.1904 58.0122 24.3732C57.8746 24.5559 57.616 24.5892 57.4343 24.4507C56.5427 23.764 55.4805 23.404 54.3577 23.404C53.2129 23.404 52.1286 23.7806 51.226 24.4895C51.1489 24.5504 51.0609 24.5781 50.9728 24.5781Z" fill="white" fill-opacity="0.8"/>
<path d="M56.4221 34.0832C56.2569 34.0832 56.1028 33.9835 56.0368 33.8229C55.9542 33.6125 56.0533 33.3688 56.268 33.2802C57.3302 32.8482 58.1943 32.095 58.7667 31.0981C59.3281 30.1234 59.5482 29.0157 59.3996 27.897C59.3721 27.6699 59.5317 27.4595 59.7574 27.4318C59.9775 27.4041 60.1922 27.5647 60.2197 27.7918C60.3848 29.0933 60.1316 30.3837 59.4822 31.519C58.8162 32.6821 57.809 33.5571 56.5707 34.0611C56.5266 34.0721 56.4771 34.0832 56.4221 34.0832Z" fill="white" fill-opacity="0.8"/>
<path d="M9.79034 96.0848C11.1333 97.4361 11.1333 99.6292 9.79034 100.981C8.4474 102.332 6.26787 102.332 4.92493 100.981C3.58199 99.6292 3.58199 97.4361 4.92493 96.0848C6.26787 94.7335 8.4474 94.7335 9.79034 96.0848Z" fill="white"/>
<path d="M5.29463 104.082C5.24509 104.082 5.19006 104.071 5.14052 104.054C3.90216 103.556 2.90045 102.675 2.22898 101.512C1.57953 100.377 1.32085 99.092 1.49147 97.785C1.51899 97.5579 1.73364 97.3973 1.95379 97.425C2.17945 97.4527 2.33906 97.6631 2.31154 97.8902C2.16844 99.0089 2.38861 100.117 2.94449 101.091C3.51689 102.088 4.38098 102.847 5.44323 103.273C5.65237 103.362 5.75695 103.6 5.67439 103.816C5.61385 103.982 5.45424 104.082 5.29463 104.082Z" fill="white" fill-opacity="0.8"/>
<path d="M3.97282 94.5781C3.85174 94.5781 3.73066 94.5227 3.6481 94.4175C3.505 94.2347 3.53803 93.9744 3.71965 93.836C4.77089 93.0108 6.02575 92.5732 7.35768 92.5732C8.65659 92.5732 9.89495 92.9942 10.9352 93.7917C11.1168 93.9301 11.1498 94.1904 11.0122 94.3732C10.8746 94.5559 10.616 94.5892 10.4343 94.4507C9.54271 93.764 8.48047 93.404 7.35768 93.404C6.21288 93.404 5.12863 93.7806 4.226 94.4895C4.14894 94.5504 4.06089 94.5781 3.97282 94.5781Z" fill="white" fill-opacity="0.8"/>
<path d="M9.42206 104.083C9.25694 104.083 9.10283 103.984 9.03678 103.823C8.95423 103.612 9.0533 103.369 9.26795 103.28C10.3302 102.848 11.1943 102.095 11.7667 101.098C12.3281 100.123 12.5482 99.0157 12.3996 97.897C12.3721 97.6699 12.5317 97.4595 12.7574 97.4318C12.9775 97.4041 13.1922 97.5647 13.2197 97.7918C13.3848 99.0933 13.1316 100.384 12.4822 101.519C11.8162 102.682 10.809 103.557 9.57066 104.061C9.52663 104.072 9.4771 104.083 9.42206 104.083Z" fill="white" fill-opacity="0.8"/>
<defs>
<linearGradient id="paint0_linear_212_438" x1="52.269" y1="-3.41829e-08" x2="52.269" y2="150.485" gradientUnits="userSpaceOnUse">
<stop stop-color="#F4F0F7"/>
<stop offset="1" stop-color="white" stop-opacity="0.2"/>
</linearGradient>
</defs>
</svg>
