<?xml version="1.0" encoding="UTF-8"?>
<svg width="30px" height="37px" viewBox="0 0 30 37" version="1.1" xmlns="http://www.w3.org/2000/svg" xmlns:xlink="http://www.w3.org/1999/xlink">
    <title>Shape</title>
    <g id="Page-1" stroke="none" stroke-width="1" fill="none" fill-rule="evenodd">
        <path d="M25.838,4.888 L16.47,1.254 C15.499,0.884 13.915,0.884 12.944,1.254 L3.575,4.888 C1.77,5.594 0.305,7.782 0.305,9.775 L0.305,24.065 C0.305,25.494 1.208,27.381 2.315,28.228 L11.683,35.479 C13.335,36.767 16.043,36.767 17.696,35.479 L27.064,28.229 C28.172,27.364 29.0741465,25.494 29.0741465,24.065 L29.0741465,9.775 C29.091,7.782 27.626,5.595 25.838,4.888 L25.838,4.888 Z M15.976,20.237 L15.976,24.877 C15.976,25.6 15.396,26.199 14.698,26.199 C14,26.199 13.421,25.599 13.421,24.876 L13.421,20.236 C11.701,19.672 10.44,18.014 10.44,16.056 C10.44,13.621 12.347,11.646 14.698,11.646 C17.048,11.646 18.956,13.621 18.956,16.056 C18.956,18.031 17.696,19.672 15.976,20.236 L15.976,20.237 Z" id="Shape" fill="#FFFFFF" fill-rule="nonzero"></path>
    </g>
</svg>