<?xml version="1.0" encoding="UTF-8"?>
<svg width="25px" height="25px" viewBox="0 0 25 25" version="1.1" xmlns="http://www.w3.org/2000/svg" xmlns:xlink="http://www.w3.org/1999/xlink">
    <title>Shape</title>
    <g id="Page-1" stroke="none" stroke-width="1" fill="none" fill-rule="evenodd">
        <path d="M17.1250016,5.3294109e-07 C17.6409054,0.00381318708 18.05819,0.421097852 18.0620016,0.937001605 L18.0620016,2.78700161 C20.0520366,3.38971919 21.609284,4.94696664 22.2120016,6.93700161 L24.0620016,6.93700161 C24.3109375,6.93646912 24.549831,7.03512283 24.7258557,7.21114752 C24.9018804,7.3871722 25.0005341,7.62606568 25.0001085,7.87500161 C25.0024353,8.12442143 24.9043597,8.36432018 24.7278908,8.54060093 C24.5514219,8.71688168 24.3114187,8.81470132 24.0620016,8.81200161 L22.5000005,8.81200161 L22.5000005,11.5620016 L24.0620016,11.5620016 C24.3115939,11.5592972 24.5517524,11.6572533 24.7282512,11.833752 C24.9047499,12.0102508 25.002706,12.2504093 25.0001085,12.5000005 C25.0005341,12.7489375 24.9018804,12.987831 24.7258557,13.1638557 C24.549831,13.3398804 24.3109375,13.4385341 24.0620016,13.4380016 L22.5000005,13.4370016 L22.5000005,16.1870016 L24.0620016,16.1870016 C24.3115939,16.1842972 24.5517524,16.2822533 24.7282512,16.458752 C24.9047499,16.6352508 25.002706,16.8754093 25.0001085,17.1250016 C25.0001085,17.3737644 24.9014967,17.6124005 24.725501,17.7882086 C24.5495053,17.9640167 24.310764,18.0625333 24.0620016,18.0620016 L22.2120016,18.0620016 C21.609284,20.0520366 20.0520366,21.609284 18.0620016,22.2120016 L18.0620016,24.0620016 C18.0587341,24.5782958 17.6412921,24.9961834 17.1250016,25.0000005 C16.6120016,25.0000005 16.1870016,24.5750016 16.1870016,24.0630016 L16.1870016,22.5000005 L13.4500016,22.5000005 L13.4500016,24.0620016 C13.4467279,24.5786826 13.0286826,24.9967279 12.5120016,25.0000005 C11.9870016,25.0000005 11.5750016,24.5750016 11.5750016,24.0630016 L11.5750016,22.5000005 L8.8250016,22.5000005 L8.8250016,24.0620016 C8.82172792,24.5786826 8.40368262,24.9967279 7.8870016,25.0000005 C7.3620016,25.0000005 6.9500016,24.5750016 6.9500016,24.0630016 L6.9500016,22.2130016 C4.9500016,21.6130016 3.3750016,20.0500016 2.7870016,18.0630016 L0.9370016,18.0630016 C0.4250016,18.0630016 5.31239154e-07,17.6370016 5.31239154e-07,17.1250016 C-0.000264128796,16.8764124 0.0983698958,16.6379283 0.274149118,16.4621491 C0.449928341,16.2863699 0.688412382,16.1877359 0.9370016,16.1880016 L2.50000053,16.1880016 L2.50000053,13.4380016 L0.9370016,13.4380016 C0.4250016,13.4380016 5.31239154e-07,13.0120016 5.31239154e-07,12.5000005 C-0.000264128796,12.2514124 0.0983698958,12.0129283 0.274149118,11.8371491 C0.449928341,11.6613699 0.688412382,11.5627359 0.9370016,11.5630016 L2.50000053,11.5630016 L2.50000053,8.81300161 L0.9370016,8.81300161 C0.4250016,8.81300161 5.31239154e-07,8.40000161 5.31239154e-07,7.87500161 C0.00381318195,7.35909785 0.421097846,6.94181319 0.9370016,6.93800161 L2.7870016,6.93800161 C3.3870016,4.95000161 4.9500016,3.38800161 6.9500016,2.78800161 L6.9500016,0.938001605 C6.94946991,0.689239251 7.04798651,0.450497942 7.22379462,0.274502203 C7.39960273,0.0985064645 7.63823882,-0.000264735264 7.8870016,5.3294109e-07 C8.40329583,0.00326908375 8.82118341,0.420711152 8.8250016,0.937001605 L8.8250016,2.50000053 L11.5620016,2.50000053 L11.5620016,0.938001605 C11.5652753,0.42132059 11.9833206,0.0032752898 12.5000005,5.3294109e-07 C13.0159054,0.00381318708 13.43319,0.421097852 13.4370016,0.937001605 L13.4370016,2.50000053 L16.1870016,2.50000053 L16.1870016,0.938001605 C16.1902753,0.42132059 16.6083206,0.0032752898 17.1250016,5.3294109e-07 Z M15.3250016,5.92500161 L9.6750016,5.92500161 C7.60644132,5.93104284 5.93104283,7.60644132 5.9250016,9.67500161 L5.9250016,15.3250016 C5.93104283,17.3935619 7.60644132,19.0689604 9.6750016,19.0750016 L15.3250016,19.0750016 C17.3935619,19.0689604 19.0689604,17.3935619 19.0750016,15.3250016 L19.0750016,9.67500161 C19.0689604,7.60644132 17.3935619,5.93104284 15.3250016,5.92500161 Z M14.9870016,7.17499843 C15.7399301,7.17420443 16.4622498,7.47295115 16.9946509,8.00535229 C17.5270521,8.53775344 17.8257988,9.26007311 17.8250048,10.0130016 L17.8250048,14.9750016 C17.8255331,15.7277569 17.5266691,16.4498194 16.9942968,16.9820041 C16.4619245,17.5141888 15.7397567,17.8127984 14.9870016,17.8120401 L10.0250016,17.8120401 C9.27142037,17.8159396 8.54785569,17.5178804 8.01498925,16.985014 C7.4821228,16.4521475 7.18406363,15.7285828 7.18695888,14.9750016 L7.18695888,10.0130016 C7.18620443,9.26007311 7.48495114,8.53775344 8.01735229,8.00535229 C8.54975343,7.47295115 9.2720731,7.17420443 10.0250016,7.17499843 L14.9870016,7.17499843 Z" id="Shape" fill="#FFFFFF" fill-rule="nonzero"></path>
    </g>
</svg>