<svg width="50" height="50" fill="none" xmlns="http://www.w3.org/2000/svg"><g filter="url(#a)"><rect width="50" height="50" rx="12" fill="#252639"/><rect x=".2" y=".2" width="49.6" height="49.6" rx="11.8" stroke="url(#b)" stroke-opacity=".4" stroke-width=".4"/><path d="m32.629 15.54-6.417-2.49c-.665-.253-1.75-.253-2.415 0l-6.417 2.49c-1.236.483-2.24 1.982-2.24 3.347v9.787c0 .98.619 2.272 1.377 2.852l6.417 4.966c1.131.882 2.986.882 4.118 0l6.417-4.966c.758-.592 1.376-1.873 1.376-2.852v-9.787c.012-1.366-.991-2.864-2.216-3.347zm-6.755 10.512v3.178c0 .496-.397.907-.875.907-.479 0-.875-.411-.875-.907v-3.178c-1.179-.386-2.042-1.522-2.042-2.863 0-1.668 1.307-3.021 2.917-3.021 1.61 0 2.916 1.353 2.916 3.02a2.996 2.996 0 0 1-2.041 2.864z" fill="#fff"/></g><defs><linearGradient id="b" x1="-43.023" y1="-46.23" x2="60.898" y2="54.499" gradientUnits="userSpaceOnUse"><stop stop-color="#A4A5C5"/><stop offset="1" stop-color="#3F4168"/></linearGradient><filter id="a" x="0" y="0" width="50" height="50" filterUnits="userSpaceOnUse" color-interpolation-filters="sRGB"><feFlood flood-opacity="0" result="BackgroundImageFix"/><feBlend in="SourceGraphic" in2="BackgroundImageFix" result="shape"/><feColorMatrix in="SourceAlpha" values="0 0 0 0 0 0 0 0 0 0 0 0 0 0 0 0 0 0 127 0" result="hardAlpha"/><feMorphology radius="4.417" in="SourceAlpha" result="effect1_innerShadow_182_391"/><feOffset/><feGaussianBlur stdDeviation="3.621"/><feComposite in2="hardAlpha" operator="arithmetic" k2="-1" k3="1"/><feColorMatrix values="0 0 0 0 0.266667 0 0 0 0 0.27451 0 0 0 0 0.439216 0 0 0 0.18 0"/><feBlend in2="shape" result="effect1_innerShadow_182_391"/></filter></defs></svg>