<?xml version="1.0" encoding="UTF-8"?>
<svg width="32px" height="32px" viewBox="0 0 32 32" version="1.1" xmlns="http://www.w3.org/2000/svg" xmlns:xlink="http://www.w3.org/1999/xlink">
    <title>instagram</title>
    <g id="Page-1" stroke="none" stroke-width="1" fill="none" fill-rule="evenodd">
        <g id="instagram">
            <path d="M0,16 C0,7.16346667 7.16346667,0 16,0 C24.8365333,0 32,7.16346667 32,16 C32,24.8365333 24.8365333,32 16,32 C7.16346667,32 0,24.8365333 0,16 Z" id="b" fill="#55597B"></path>
            <path d="M16.0008,7.46666667 C13.683264,7.46666667 13.392416,7.47680011 12.4821867,7.51822277 C11.5737333,7.5598232 10.9536373,7.70364677 10.411056,7.91467131 C9.849808,8.13262917 9.373712,8.42418757 8.89939733,8.89868197 C8.42472587,9.37299824 8.133168,9.84909264 7.914496,10.4101646 C7.70293813,10.9529273 7.55893653,11.5731993 7.51804747,12.4812953 C7.47733595,13.3915246 7.46666917,13.682554 7.46666917,16.00009 C7.46666917,18.317626 7.47698037,18.6075833 7.51822528,19.517818 C7.56000347,20.4262713 7.70382741,21.0463673 7.91467381,21.5889486 C8.13280928,22.1501966 8.42436821,22.6262926 8.89886048,23.1006073 C9.37299861,23.5752788 9.84909515,23.8675513 10.4099858,24.0855086 C10.9529245,24.2965332 11.5731965,24.4403566 12.4814738,24.4819572 C13.3917031,24.5233798 13.6823751,24.5335132 15.9997351,24.5335132 C18.3174471,24.5335132 18.6074045,24.5233798 19.5176391,24.4819572 C20.4260925,24.4403567 21.0468978,24.2965332 21.5898365,24.0855086 C22.1509085,23.8675508 22.6262898,23.5752809 23.1004285,23.1006073 C23.5750999,22.626291 23.8666578,22.1501966 24.0853298,21.5891246 C24.2951101,21.046362 24.4391111,20.42609 24.4817783,19.517994 C24.5226677,18.6077646 24.5333345,18.317626 24.5333345,16.00009 C24.5333345,13.682554 24.5226677,13.391706 24.4817783,12.4814766 C24.4391113,11.5730233 24.2951095,10.9529273 24.0853298,10.410346 C23.866661,9.84909797 23.5751021,9.37300197 23.1004285,8.89868731 C22.625757,8.42401584 22.1510845,8.13245797 21.5893031,7.91467664 C21.0452978,7.70365211 20.4248445,7.55982864 19.5163911,7.51822811 C18.6061618,7.47680544 18.3163805,7.46666667 15.9981298,7.46666667 L16.0007965,7.46666667 L16.0008,7.46666667 Z M15.23528,9.00445867 C15.4624827,9.00410309 15.7159963,9.00445867 16.0008,9.00445867 C18.2792213,9.00445867 18.5492693,9.01263653 19.4490133,9.05352581 C20.281024,9.09157067 20.7325813,9.23059461 21.0333867,9.34739568 C21.4316133,9.50206395 21.7155253,9.68695461 22.0140213,9.98562501 C22.3126912,10.2842949 22.4975819,10.5687397 22.652608,10.966969 C22.7694091,11.2674165 22.9086107,11.7189743 22.9464779,12.550985 C22.9873671,13.4505477 22.9962562,13.720777 22.9962562,15.9981317 C22.9962562,18.2754863 22.9873671,18.5457157 22.9464779,19.4452783 C22.908433,20.277289 22.7694096,20.7288463 22.652608,21.0292943 C22.4979397,21.4275205 22.3126933,21.711081 22.0140213,22.0095717 C21.7153515,22.3082415 21.431792,22.4931322 21.0333867,22.647801 C20.7329392,22.7651354 20.281024,22.9038037 19.4490133,22.9418485 C18.5494507,22.9827378 18.2792213,22.9916268 16.0008,22.9916268 C13.7221973,22.9916268 13.4521493,22.9827378 12.5525867,22.9418485 C11.720576,22.9034481 11.2690187,22.7644245 10.9680373,22.6476234 C10.5698107,22.4929551 10.2853653,22.3080645 9.98669333,22.0093941 C9.68802347,21.7107242 9.5031328,21.4269887 9.34810667,21.0285834 C9.2313056,20.7281359 9.092104,20.2765781 9.0542368,19.4445674 C9.01334747,18.5450047 9.0051696,18.2747754 9.0051696,15.9959967 C9.0051696,13.7172181 9.01334747,13.4484127 9.0542368,12.5488501 C9.09228165,11.7168394 9.23130507,11.2652821 9.34810667,10.9644767 C9.50277493,10.5662501 9.68802133,10.2818047 9.98669333,9.98313275 C10.2853632,9.68446288 10.569808,9.49957221 10.9680373,9.34454608 C11.2688405,9.22721168 11.720576,9.08854341 12.5525867,9.05032101 C13.3397973,9.01476507 13.644864,9.00409829 15.23528,9.00232048 L15.23528,9.00445387 L15.23528,9.00445867 Z M20.5558667,10.42136 C19.990528,10.42136 19.531856,10.8794981 19.531856,11.4450133 C19.531856,12.010352 19.9905275,12.469024 20.5558667,12.469024 C21.1212053,12.469024 21.5798773,12.0103525 21.5798773,11.4450133 C21.5798773,10.8796747 21.1212059,10.4210027 20.5558667,10.4210027 L20.5558667,10.4213582 L20.5558667,10.42136 Z M16.0007947,11.6178187 C13.5806827,11.6178187 11.618528,13.5799733 11.618528,16.0000853 C11.618528,18.4201973 13.5806827,20.3814667 16.0007947,20.3814667 C18.4209067,20.3814667 20.382352,18.4202027 20.382352,16.0000853 C20.382352,13.5799733 18.4207307,11.6178187 16.0006187,11.6178187 L16.0007964,11.6178187 L16.0007947,11.6178187 Z M16.0007947,13.1556107 C17.5716533,13.1556107 18.8452693,14.4290453 18.8452693,16.0000853 C18.8452693,17.570944 17.5716587,18.84456 16.0007947,18.84456 C14.4297547,18.84456 13.15632,17.5709493 13.15632,16.0000853 C13.15632,14.4290453 14.4297547,13.1556107 16.0007947,13.1556107 L16.0007947,13.1556107 Z" id="Shape" fill="#FFFFFF"></path>
        </g>
    </g>
</svg>