<svg width="68" height="56" fill="none" xmlns="http://www.w3.org/2000/svg"><path fill="#fff" d="M2 0h64.251v54H2.001z"/><path d="M34.134 36.347a1.815 1.815 0 0 1-.908-.234c-2.368-1.372-19.9-12.355-20.565-12.7a1.59 1.59 0 0 1-.908-1.279V6.711a1.671 1.671 0 0 1 .754-1.432l.128-.072C14.339 4.155 20.01.69 20.909.192c.206-.123.442-.189.682-.192.224.003.444.058.643.162 0 0 7.946 5.181 9.16 5.641a6.267 6.267 0 0 0 2.723.571 6.097 6.097 0 0 0 3.046-.745c1.189-.627 8.781-5.441 8.862-5.441.192-.115.412-.174.635-.17.24 0 .476.067.682.191 1.035.571 8.074 4.879 8.372 5.07a1.631 1.631 0 0 1 .788 1.415v15.423a1.568 1.568 0 0 1-.908 1.278c-.66.363-18.141 11.36-20.557 12.701a1.816 1.816 0 0 1-.907.256" fill="url(#a)"/><path d="M34.044 36.348h.09c.318.002.63-.078.907-.234 2.37-1.372 19.893-12.356 20.558-12.701a1.568 1.568 0 0 0 .907-1.279V6.711a1.648 1.648 0 0 0-.17-.754L34.049 18.193v18.142" fill="url(#b)"/><path d="M33.968 36.13h-.09a1.794 1.794 0 0 1-.898-.235C30.637 34.54 13.3 23.663 12.644 23.331a1.55 1.55 0 0 1-.899-1.257V6.817a1.632 1.632 0 0 1 .17-.746L33.968 18.18v17.95z" fill="url(#c)"/><path d="M.554 40.238h2.57v12.375h4.434v2.442H.575l-.02-14.817zM13.526 43.931a4.361 4.361 0 0 1 3.488 1.678v-1.458h2.4v10.907h-2.396V53.6a4.36 4.36 0 0 1-3.488 1.678c-2.993 0-5.264-2.557-5.264-5.675s2.271-5.672 5.264-5.672m.436 2.184c-1.943 0-3.23 1.528-3.23 3.488s1.308 3.488 3.23 3.488 3.226-1.528 3.226-3.488-1.287-3.488-3.226-3.488zM21.283 53.164l5.72-6.833H21.37v-2.18h8.72v1.922l-5.695 6.805h5.824v2.18h-8.936v-1.894zM36.33 43.931a4.356 4.356 0 0 1 3.488 1.678v-1.458h2.4v10.907h-2.4V53.6a4.355 4.355 0 0 1-3.488 1.678c-2.993 0-5.257-2.557-5.257-5.675s2.264-5.672 5.257-5.672zm.436 2.184c-1.943 0-3.227 1.528-3.227 3.488s1.308 3.488 3.227 3.488c1.918 0 3.226-1.528 3.226-3.488s-1.287-3.488-3.226-3.488zM49.078 43.932a4.343 4.343 0 0 1 3.488 1.677v-6.278h2.4v15.716h-2.4V53.59a4.343 4.343 0 0 1-3.488 1.677c-2.992 0-5.263-2.556-5.263-5.675 0-3.118 2.27-5.67 5.263-5.67m.436 2.183c-1.943 0-3.226 1.527-3.226 3.488 0 1.96 1.311 3.487 3.226 3.487s3.226-1.527 3.226-3.487c0-1.96-1.287-3.488-3.226-3.488zM61.816 43.932a4.341 4.341 0 0 1 3.488 1.677v-1.458h2.393v10.907h-2.403V53.6a4.342 4.342 0 0 1-3.488 1.678c-2.993 0-5.264-2.557-5.264-5.675s2.282-5.671 5.274-5.671zm.436 2.183c-1.943 0-3.23 1.528-3.23 3.488s1.312 3.488 3.23 3.488c1.919 0 3.226-1.528 3.226-3.488s-1.287-3.488-3.226-3.488z" fill="#000083"/><defs><linearGradient id="a" x1="11.914" y1="18.241" x2="56.268" y2="17.885" gradientUnits="userSpaceOnUse"><stop stop-color="#FFB900"/><stop offset=".34" stop-color="#F38000"/><stop offset=".57" stop-color="#F83C72"/><stop offset=".78" stop-color="#FC1CBE"/><stop offset=".93" stop-color="#FE08ED"/><stop offset="1" stop-color="#F0F"/></linearGradient><linearGradient id="b" x1="24.373" y1="32.741" x2="69.581" y2="7.728" gradientUnits="userSpaceOnUse"><stop stop-color="#EE0A3F"/><stop offset="1" stop-color="#EE0A3F" stop-opacity="0"/></linearGradient><linearGradient id="c" x1="29.151" y1="25.509" x2="7.318" y2="7.926" gradientUnits="userSpaceOnUse"><stop stop-color="#ED6600"/><stop offset="1" stop-color="#F98200"/></linearGradient></defs></svg>