<svg width="3104" height="2082" fill="none" xmlns="http://www.w3.org/2000/svg"><g opacity=".3"><g opacity=".9" stroke-miterlimit="10" stroke-linecap="round"><path d="M2537.84 700.043c-28.85-10.787-53.09-25.287-69.86-47.887-14.51-19.445-19.46-50.715-42.55-63.952-29.02-16.853-71.47 3.023-101.51 16.08-76.61 33.431-148.81 77.496-220.82 118.233-98.25 55.44-169.21 104.207-189.9 204.058-11.91 56.445-6.86 114.815-31.15 170.315-26.02 59.52-78.64 115.29-134.54 158.44-132.13 102.16-268.9 90.52-412.47 50.46-138.93-38.9-325.6-122.55-485.008-51.47-117.346 52.36-190.369 168.71-246.031 263.81-105.47 180.17-176.371 370.93-215.43 562.95" stroke="url(#a)" stroke-width=".5"/><path d="M2529.74 691.204c-26.17-11.847-45.46-28.949-58.23-51.603-11.01-19.54-13.46-52.424-36.26-64.736-29.81-16.191-73.45 5.491-103.37 18.919-78.3 35.198-151.87 80.513-226.1 122.165-97.97 54.738-176.21 101.954-197.7 202.467-12.29 58.403-6.3 118.924-30.46 176.424-24.6 58.45-77.07 112.34-133.04 153.67-133.42 98.9-270.12 88.27-413.13 48.42-139.16-38.82-325.79-124.73-485.532-53.13-117.744 52.69-190.252 169.08-245.795 264.55-104.727 180.13-176.718 370.63-215.608 562.39" stroke="url(#b)" stroke-width=".529"/><path d="M2523.29 682.038c-23.32-13.165-37.66-32.869-46.81-55.247-8.1-19.858-8.21-53.287-30.66-65.301-29.98-15.932-76.57 8.324-105.68 21.903-79.78 36.892-154.88 83.716-230.93 125.95-96.56 53.674-182.65 99.927-205.23 200.176-13.81 60.725-6.02 123.731-29.92 183.601-23.07 57.76-75.32 109.94-131.09 149.57-134.59 96.02-271.57 86.08-413.6 46.13-139.28-39.19-326.16-127.47-486.306-55.53-117.684 52.87-190.42 169.33-245.617 265.1-103.924 180.28-176.718 370.63-215.667 562.21" stroke="url(#c)" stroke-width=".559"/><path d="M2518.84 672.034c-20.49-16.109-30.44-37.826-36.63-61.151-4.93-18.623-3.95-51.787-25.13-62.982-31.36-16.309-85.85 13.937-114.39 27.741-79.01 38.485-153.71 84.978-230 127.285-93.14 51.767-184.92 95.96-212.05 192.97-18.07 64.735-6.47 131.013-30.72 195.283-22.09 58.46-75.1 109.87-132.18 148.49-135.5 91.61-270.89 81.17-411.14 41.26-138.94-39.71-326.48-130.83-487.31-58.68-117.684 52.87-190.53 169.78-245.44 265.66-103.239 180.06-176.887 370.88-215.666 562.2" stroke="url(#d)" stroke-width=".588"/><path d="M2516.9 661.228c-16.9-18.274-23.08-40.786-26.75-64.099-3-18.836-.18-51.769-21.81-62.818-31.77-15.978-89.66 16.988-117.62 31.016-80.26 40.107-156.49 88.109-234.26 131.296-92.45 51.548-186.65 93.659-218.21 189.427-22.28 67.304-8.3 136.3-31.96 203.22-20.65 58.22-72.76 108.52-129.91 146.15-136.38 89.64-272.34 78.97-411.74 38.59-138.6-40.23-327.266-134.87-488.49-62.39-117.913 52.95-190.471 169.97-245.321 266.03-103.07 179.81-176.828 371.07-215.608 562.39" stroke="url(#e)"/><path d="M2516.61 650.095c-20.58-31.381-.49-111.859-37.13-128.933-31.58-14.609-86.16 16.894-114.87 30.956-84.02 41.715-163.25 92.92-244.32 138.384-92.39 51.733-187.7 91.953-224.02 186.183-26.84 69.574-10.84 140.975-33.83 210.755-19.17 58.15-70.08 107.46-127.7 144.42-137.37 88.12-273.56 76.71-412.46 35.56-138.09-41.01-327.938-139.35-489.847-66.65-117.913 52.94-190.353 170.33-245.204 266.4-102.613 179.66-176.938 371.51-215.548 562.58" stroke="url(#f)"/><path d="M2518.33 638.122c-13.95-31.867 10.01-114.397-27.31-130.439-32.65-14.06-89.79 19.686-118.61 34.191-85.33 43.152-165.57 95.905-248.28 142.508-92.9 52.507-191.83 92.45-230.78 187.111-29.17 70.931-13.21 142.967-34.77 214.117-17.46 57.2-65.46 105.37-122.06 141.6-138.45 88.67-277.11 76.62-416.13 34.28-137.58-41.78-329.02-144.31-491.327-71.27-117.913 52.94-190.463 170.77-245.027 266.95-102.325 179.77-176.879 371.7-215.548 562.58" stroke="url(#g)"/><path d="M2521.46 625.898c-8.51-32.174 19.79-116.089-19.12-131.62-33.74-13.511-93.49 22.294-122.65 37.315-86.63 44.587-167.89 98.888-251.73 146.669-91.93 52.401-193.78 91.85-235.84 184.647-33.04 72.983-17.01 146.831-37.51 220.501-16.08 57.57-62.2 105.35-119.31 141.53-138.98 87.83-278.69 74.07-416.74 30.81-136.68-42.88-330.223-149.64-492.986-76.46-117.913 52.94-190.345 171.15-244.908 267.32-102.097 179.71-176.761 372.07-215.43 562.95" stroke="url(#h)"/><path d="M2526.37 612.906c-3.65-32.705 28.99-117.191-12.55-132.291-35.28-12.815-97.01 24.644-126.97 40.327-87.98 45.838-170.03 101.614-254.95 150.758-89.36 51.785-193.39 90.705-238.92 179.714-38.51 75.545-22.34 152.206-41.84 229.026-15.03 59.27-60.45 107.64-119.74 144.12-139.39 85.71-277.93 69.33-414.44 25.38-136.01-43.92-331.313-155.41-494.761-82.02-118.141 53.02-190.454 171.59-244.789 267.7-101.81 179.81-176.415 372.36-215.371 563.13" stroke="url(#i)"/><path d="M2532.71 599.66c.24-33.13 37.64-116.89-7.4-132.71-33.09-11.474-97.47 25.603-125.32 40.002-91.63 47.817-176.45 106.723-264.26 158.626-89.75 52.93-196.92 92.242-244.91 181.424-40.69 75.831-25.77 153.298-43.54 230.788-13.66 58.84-55.37 107.05-114.31 143.81-140.18 87.19-281.24 69.18-417.84 23.41-133.72-44.64-329.86-159.55-492.427-89.7-120.558 51.75-194.048 172.94-248.831 270.01-101.582 179.74-176.355 372.55-215.024 563.43" stroke="url(#j)" stroke-width="1.2"/><path d="M2540.41 585.979c3.85-33.668 44.68-117.707-4.24-132.288-35.03-10.447-100.88 27.509-129.93 42.901-92.59 48.737-178.08 109.489-266.96 162.755-89.12 53.339-197.95 92.976-248.48 180.519-44.39 76.812-30.72 155.898-47.04 234.764-12.4 59.66-51.58 108.69-111.37 145.94-140.52 87.7-282.82 66.61-418.51 19.74-92.72-32.02-183.3-73.91-281.39-99.11-67.385-17.26-141.794-27.38-212.987 3.3-120.559 51.75-194.099 173.57-248.654 270.56-101.295 179.86-176.237 372.93-214.965 563.62" stroke="url(#k)" stroke-width="1.2"/><path d="M2548.97 571.821c6.87-34.43 50.33-118.9-2.92-131.284-41.26-9.478-107.83 30.953-141.71 49.316-90.93 49.226-174.82 109.468-261.93 162.78-87.11 53.311-196.11 93.206-249.99 177.331-50.05 78.005-37.32 159.638-52.65 240.846-11.75 61.69-48.96 112.14-111.55 150.88-140.19 86.38-282.87 61.74-416.05 14.06-93.42-33.43-184.19-76.68-282.75-103.37-67.162-18.14-141.984-29.56-213.694 1.09-120.617 51.56-193.98 173.93-248.535 270.92-101.236 180.04-175.891 373.23-214.847 563.99" stroke="url(#l)" stroke-width="1.2"/><path d="M2558.96 557.41c9.61-35.304 55.02-119.174-2.8-130.1-43.87-8.234-111.13 32.416-147.11 52.064-91.84 50.331-176.06 111.902-263.44 166.728-87.95 55.416-197.86 95.602-254.43 179.973-51.78 77.331-41.22 159.25-55.06 240.385-10.55 61.52-43.63 113.09-105.92 152.77-140.44 89.51-286.82 61.15-419.5 11.89-93.84-34.72-184.91-79.72-284.18-107.81-66.938-19.03-142.402-31.67-214.399-1.14-120.676 51.38-194.09 174.38-248.417 271.3-100.948 180.15-175.772 373.59-214.729 564.36" stroke="url(#m)" stroke-width="1.2"/><path d="M2569.63 542.783c11.62-34.518 58.89-121.226-4.09-128.664-49.93-5.896-119 36.15-159.99 59.028-89.6 50.23-172 111.219-257.26 166.388-88.22 56.93-199.95 98.513-258.29 182.838-52.82 76.439-45.01 158.418-57.42 239.307-9.9 63.55-40.83 117.91-105.91 159.08-140.11 89-286.88 56.28-417.27 6.29-97.18-37.33-191.16-85.89-294.55-115.11-62.753-17.72-134.203-29.6-201.938-2.26-123.043 49.48-198.081 176.06-252.459 273.61-100.661 180.26-175.485 373.7-214.839 564.8" stroke="url(#n)" stroke-width="1.2"/><path d="M2581.22 527.863c13.83-36.246 60.61-121.366-7.68-126.5-51.28-3.832-116.56 34.35-159.08 57.923-92.74 51.436-176.94 115.448-263.95 173.012-87.58 58.154-199.3 100.55-259.83 183.534-55.46 76.056-50.45 158.725-61.71 240.058-9.02 64.7-36.96 121.37-102.99 164.28-140.03 90.81-288.96 53.68-417.77 2.36-97.66-38.81-191.93-89.1-296.09-119.92-62.47-18.42-134.393-31.78-202.643-4.49-123.102 49.3-198.132 176.7-252.341 273.98-100.601 180.45-175.138 374.01-214.721 565.18" stroke="url(#o)" stroke-width="1.2"/><path d="M2593.49 512.723c15.88-37.715 61.4-122.028-12.18-124.044-54.57-1.555-119.35 35.039-165.07 60.445-93.36 51.84-177.15 117.148-263.91 176.267-85.91 58.642-195.79 102.083-258.76 182.171-59.81 75.813-57.42 159.726-67.98 242.468-8.28 64.67-32.13 123.91-97.69 168.3-140.04 94.69-292.28 53.51-420.87.5-98.19-40.48-192.94-92.26-297.63-124.74-62.19-19.12-134.755-33.71-203.293-6.52-123.22 48.92-198.242 177.13-252.222 274.35-100.543 180.63-175.02 374.37-214.544 565.72" stroke="url(#p)" stroke-width="1.2"/><path d="M2606.22 497.436c18.25-40.514 59.69-121.074-18.17-121.521-54.67-.298-118.45 33.934-164.74 59.116-96.33 52.787-181.46 120.973-269.57 182.969-84.41 59.389-191.71 103.841-257.05 181.218-63.47 75.352-64.91 159.876-74.66 243.582-7.74 67.15-29.15 130.1-97.55 176.62-139.19 95.03-292.79 48.78-418.65-5.11-97.79-41.62-191.87-94.43-296.05-128.51-64.562-21.01-139.493-37.49-211.211-7.66-120.971 50.45-194.53 176.15-247.944 272.78-100.483 180.82-174.673 374.67-214.197 566.02" stroke="url(#q)" stroke-width="1.2"/><path d="M2619.4 482.006c20.74-43.756 56.32-120.61-26.21-118.342-60.32 1.708-126.72 36.371-177.5 64.823-93.93 52.428-176.32 119.74-261.39 181.788-84.51 61.459-191.73 107.723-258.44 185.537-63.04 73.58-68.44 156.716-77.35 239.138-7.16 67.37-25.1 133.29-92.51 182.15-138.05 100.17-297.03 48.09-421.75-6.97-98.33-43.29-192.88-97.59-297.6-133.33-64.05-21.79-139.91-39.6-211.856-9.7-121.031 50.27-194.412 176.53-247.885 272.97-100.424 181-174.327 374.96-214.079 566.39" stroke="url(#r)" stroke-width="1.2"/><path d="M2632.81 466.504c23.22-47.812 50.33-118.9-35.22-115.057-61 2.74-125.82 35.266-178.08 63.785-96.85 52.747-179.9 122.718-265.64 187.425-84.31 63.642-191.33 112.088-259.25 190.082-62.19 71.476-71.51 152.596-79.86 233.611-7.37 69.89-22.22 140.74-92.35 192.1-137.64 100.66-297.48 43.54-419.63-12.14-98.86-44.96-193.65-100.8-299.14-138.13-63.767-22.5-140.041-41.61-212.443-11.56-121.091 50.08-194.523 176.97-247.767 273.34-100.137 181.11-174.209 375.33-213.902 566.95" stroke="url(#s)" stroke-width="1.2"/><path d="M2646.45 450.928c25.64-52.052 42.16-117.719-45.89-111.447-169.5 11.872-327.44 160.839-447.28 255.002-82.25 64.613-185.82 114.407-255.13 190.397-64.1 70.246-77.95 150.569-86.69 231.91-7.36 70.71-18.18 144.76-87.71 198.78-136.55 106.44-301.31 43.34-422.39-13.7-98.24-46.18-192.59-102.98-297.51-141.72-65.563-24.16-145.352-45.62-220.19-12.96-118.724 51.98-190.752 176.18-243.659 272.03-100.018 181.48-173.862 375.63-214.011 567.39" stroke="url(#t)" stroke-width="1.2"/><path d="M2660.32 435.279c28.1-57.735 31.02-114.777-58.15-107.327-170.97 14.38-330.49 159.974-450.12 257.946-80.41 65.658-179.96 117.024-250.31 191.308-65.66 69.315-83.81 147.953-93.18 229.704-8.48 73.51-15.82 152.16-87.89 209.24-135.29 107.25-301.7 38.97-420.44-18.61-98.78-47.84-193.36-106.2-298.99-146.35-65.282-24.86-145.486-47.62-220.78-14.81-118.783 51.79-190.921 176.43-243.599 272.21-99.96 181.67-173.516 375.93-213.834 567.95" stroke="url(#u)" stroke-width="1.2"/><path d="M2673.96 419.703c30.12-62.459 17.48-112.291-71.45-103.287-68.52 6.772-132.74 36.453-190.9 70.934-93.67 55.61-181.29 120.715-261.89 189.699-79.4 67.992-177.61 121.99-248.76 196.936-64.24 67.435-85.52 143.396-95.7 223.366-9.34 73.989-13.56 155.319-83.71 215.249-133.45 113.81-306 38.92-423.26-19.55-98.15-49.06-192.46-108.12-297.53-149.66-64.199-25.42-144.883-50.468-220.194-19.29-121.09 50.08-194.683 178.04-247.471 274.27-99.96 181.67-173.398 376.3-213.488 568.24" stroke="url(#v)" stroke-width="1.2"/><path d="M2687.37 404.198c31.66-68.664.58-107.713-86.57-98.663-71.83 7.421-136.93 40.649-196.73 77.895-89.31 55.852-181.2 117.831-257.53 184.432-78.32 68.256-174.93 127.253-246.42 202.715-62.42 66.039-86.64 139.065-97.76 217.699-10.69 76.044-12.29 161.644-84.19 223.974-132.87 114.85-305.98 35.04-421.41-24.01-98.64-50.54-193.19-111.16-298.955-154.11-64.15-26.05-144.902-52.095-220.669-20.77-121.149 49.9-194.624 178.23-247.471 274.26-99.901 181.86-173.052 376.6-213.37 568.62" stroke="url(#w)" stroke-width="1.2"/><path d="M2700.44 389.042c31.95-73.247-18.17-104.178-103.02-94.23-71.54 8.347-135.7 43.724-194.22 81.789-88.5 57.632-177.08 118.96-259.51 182.204-45.22 34.839-85.8 74.728-131.42 109.898-38.34 29.583-76.11 60.205-109.03 94.177-63.28 65.703-91.64 137.599-104.13 216.671-12.26 78.189-11.54 167.119-84.74 231.699-131.48 116.04-306.48 31.11-419.57-28.48-98.87-52.09-193.9-114.19-300.307-158.37-64.04-26.484-145.087-53.458-221.082-22.06-121.15 49.9-194.853 178.3-247.413 274.45-99.841 182.04-172.933 376.97-213.192 569.17" stroke="url(#x)" stroke-width="1.2"/><path d="M2712.94 372.881c30.09-75.918-37.54-101.054-119.18-89.685-69.05 9.801-130.12 45.414-185.85 82.791-89.5 59.993-178.18 122.579-265.6 184.357-46.62 32.835-86.05 73.987-130.17 109.903-37.53 30.548-74.83 61.838-107.75 95.811-62.72 65.113-94.35 135.404-107.99 214.026-13.75 79.066-11.4 169.936-83.21 236.516-129.89 120.22-308.49 29.51-419.93-30.41-98.42-53.05-192.65-115.81-298.674-161.13-62.958-27.036-144.081-55.822-220.608-26.089-123.347 47.739-198.446 179.649-251.344 276.319-99.782 182.22-172.874 377.15-213.302 569.61" stroke="url(#y)" stroke-width="1.2"/><path d="M2725.27 358.232c27.16-77.227-56.97-97.301-134.41-84.618-68.59 11.283-128.26 48.899-182.72 87.095-88.34 62.07-175.47 124.773-265.95 184.059-84.69 55.394-166.17 133.434-234.44 203.993-63.18 65.259-98.6 134.718-114.01 214.109-15.23 79.13-11.62 170-80.09 238.38-127.59 127.44-311.8 30.97-422.33-30.05-98.67-54.61-193.26-118.47-299.862-164.84-63.076-27.402-144.148-56.817-220.904-27.01-123.287 47.92-198.445 179.65-251.343 276.31-99.723 182.42-172.756 377.53-213.185 569.99" stroke="url(#z)" stroke-width="1.2"/><path d="M2736.62 343.384c22.64-77.211-75.75-93.138-148.61-79.472-68.05 12.949-126.33 52.569-179.29 91.512-87.4 64.219-171.67 127.232-265.9 184.244-89.33 54.226-165.1 130.444-234.33 202.736-62.21 65.153-100.56 133.304-117.57 212.391-17.12 79.535-12.71 171.365-79.04 240.895-125.65 131.93-313.3 30.23-422.52-31.41-101.56-57.36-198.87-125.05-309.78-172.283-62.899-26.851-140.675-53.033-216.044-22.037-121.15 49.9-194.684 178.04-247.413 274.45-99.723 182.41-172.696 377.71-212.837 570.28" stroke="url(#A)" stroke-width="1.2"/><path d="M2747.07 328.826c16.92-76.204-92.72-88.746-161.73-74.063-67.41 14.173-124.4 56.24-175.87 95.929-85.95 66.407-168.6 130.538-265.08 185.21-95.01 53.791-164.19 124.642-235.11 200.329-61.17 65.231-102.28 132.629-120.9 211.413-18.83 79.666-14.47 172.136-78.28 242.496-123.71 136.41-314.67 29.85-422.81-32.35-101.69-58.54-199.42-127.52-310.844-175.609-63.017-27.221-140.565-53.476-216.163-22.407-121.378 49.966-194.743 177.856-247.412 274.446-99.724 182.41-172.579 378.08-212.779 570.47" stroke="url(#B)" stroke-width="1.2"/><path d="M2756.83 314.491c10.08-74.018-107.73-84.565-173.64-68.832-66.81 16.025-122.42 60.095-172.33 100.716-84.49 68.596-165.64 134.287-263.81 186.843-53.07 28.367-102.29 52.24-141.99 94.907-32.23 34.568-65.31 68.799-97.19 103.664-59.06 64.761-101.85 130.857-121.91 208.266-20.22 78.485-16.67 169.975-75.84 240.695-120.54 143.97-317.62 32.42-425.02-30.62-100.96-59.39-197.94-128.41-308.861-177.266-64.978-28.635-145.002-56.344-222.858-22.106C634.2 1002.88 562.46 1127.19 509.731 1223.6c-99.665 182.59-172.52 378.26-212.889 570.91" stroke="url(#C)" stroke-width="1.2"/><path d="M2765.22 300.59c2.26-70.912-120.29-80.558-184.23-63.41-66.23 17.876-120.27 63.691-169.08 105.39-82.76 70.897-162.17 138.075-262.13 188.959-50.8 26.011-109.05 46.033-147.79 86.966-32.75 34.529-63.06 71.139-94.31 106.414-57.68 65.138-103.04 131.036-124.71 208.142-21.78 77.549-19.19 169.149-75.62 239.809-118.55 148.63-318.36 33.27-425.02-30.62-101.02-60.39-198.13-130.59-309.748-180.044-65.324-28.933-144.487-56.305-222.799-21.921-119.121 52.308-191.039 176.065-243.709 272.655-99.664 182.6-172.46 378.45-212.829 571.09" stroke="url(#D)" stroke-width="1.2"/><path d="M2772.64 286.797c-5.95-67.475-130.61-76.65-193.57-57.982-67.98 20.272-121.86 70.525-170.42 114.592-79.02 71.543-156.15 138.806-254.87 187.255-50.02 24.536-113.05 41.392-153.71 79.469-34.48 32.228-62.13 72.475-92.18 107.571-56.18 65.884-103.67 131.439-127.11 208.499-23.44 77.059-22.54 166.549-75.58 237.549-115.06 154.06-320.19 33.86-425.31-29.91-100.1-60.68-196.07-131.25-307.053-180.293-64.115-28.299-144.604-56.676-222.138-24.58-121.775 50.298-194.641 176.593-247.708 273.523-99.724 182.41-172.858 378.78-212.484 571.39" stroke="url(#E)" stroke-width="1.2"/><path d="M2778.51 273.696c-14.95-63.377-137.9-73.505-201.01-52.952-67.39 22.123-119.59 74.492-166.65 119.306-77.12 73.586-152.79 143.037-252.55 190.594-50.65 24.126-114.75 37.649-158.93 72.566-37.54 29.735-62.66 71.622-91.61 106.982-54.4 66.743-104.12 132.399-129.4 209.228-25.27 76.829-26.64 162.35-76.93 234.11-111.41 159.21-320.64 34.81-424.49-28.95-99.2-60.97-195.33-130.47-306.3-178.701-63.651-27.631-145.399-56.014-222.426-24.693-123.093 50.108-195.02 173.044-248.594 270.744-99.724 182.41-173.086 378.86-212.483 571.39" stroke="url(#F)" stroke-width="1.2"/><path d="M2783.03 261.037c-23.84-58.908-142.47-71.234-207.21-47.916-66.79 23.975-117.37 78.275-163.05 124.278-75.21 75.629-149.19 147.197-249.82 194.416-51.39 24.16-116.04 34.389-163.63 66.517-41.23 27.647-64.29 68.064-92.43 104.389-52.79 67.86-104.17 133.841-131.22 210.624-26.66 75.64-29.19 159.895-78.74 230.805-112.42 160.76-317.58 36.5-423.52-29.05-97.88-60.78-194.5-127.878-304.997-174.628-63.414-26.89-145.847-55.054-222.307-24.322-123.499 49.625-196.616 168.05-250.132 265.93-99.951 182.49-172.57 378.89-212.423 571.58" stroke="url(#G)" stroke-width="1.2"/><path d="M2786.11 248.627c-33.18-54.293-144.05-69.91-211.57-43.462-66.15 26.012-115.16 82.057-159.51 129.065-73.13 77.414-145.27 150.839-246.69 198.721-51.39 24.159-113.26 31.259-163.65 58.566-46.91 25.586-68.94 61.385-97.12 99.966-51.33 70.049-105.33 137.274-134.6 214.972-28.27 75.336-32 159.775-82.76 230.045-113.88 157.76-314.53 32.67-420.57-31.63-97.28-58.92-193.25-123.983-302.705-169.027-63.406-26.077-146.119-53.54-221.843-23.654-122.425 48.262-198.854 161.821-252.259 259.261-100.18 182.56-172.512 379.08-212.365 571.77" stroke="url(#H)" stroke-width="1.2"/><path d="M2787.13 236.87c-42.23-49.567-142.73-69.719-213.98-39.221-65.5 28.049-112.72 85.767-155.91 134.037-71.05 79.199-141.16 155.037-243.21 203.323-52.87 25.039-114.94 29.956-168.38 54.771-49.92 23.279-73.81 55.594-101.52 95.656-48.69 70.431-103.08 137.988-133.69 214.681-29.87 75.032-35.26 159.793-86.94 229.543-113.47 152.73-312.85 28.46-417.61-33.39-97.38-57.67-193.63-121.211-303.231-164.37-64.488-25.527-146.72-50.695-222.148-19.884-117.962 48.061-198.598 153.174-251.276 248.954-100.12 182.74-172.283 379.01-212.593 571.83" stroke="url(#I)" stroke-width="1.2"/><path d="M2786.62 225.811c-52.59-43.404-137.42-71.21-214.58-35.563-64.84 30.085-110.5 89.549-152.43 138.639-68.97 80.984-137.22 159.493-239.31 208.407-54.36 25.92-116.67 29.283-172.95 51.533-51.14 20.204-80.1 49.24-106.77 90.195-46.46 71.144-100.33 138.74-132.43 214.686-30.92 73.327-38.28 155.862-88.08 224.402-112.09 153.92-311.91 31.42-417.86-29.44-97.37-56.04-193.66-118.14-303.354-159.229-62.409-23.742-141.294-46.306-214.296-18.922-116.802 43.814-205.129 146.891-258.229 240.561-102.487 180.85-172.731 379.97-212.365 571.76" stroke="url(#J)" stroke-width="1.2"/><path d="M2785.07 216.596c-56.22-40.611-134.22-71.417-213-32.191-64.02 31.864-108.4 92.961-148.94 143.241-66.96 82.583-133.06 163.876-235.38 213.676-96.39 47.092-221.57 31.555-286.56 126.572-48.75 71.059-100.68 144.766-134.49 220.852-31.68 71.732-41.29 151.924-89.22 219.254-110.14 154.52-310.21 35.16-417.93-24.92-93.95-52.44-186.65-110.386-291.461-149.565-63.094-23.524-144.168-47.429-218.048-22.009-116.269 39.971-210.292 140.174-265.589 231.684-106.932 177.17-173.577 381.26-213.007 570.55" stroke="url(#K)" stroke-width="1.3"/><path d="M2782.19 208.04c-55.71-40.572-133.35-70.266-210.45-28.924-63.66 33.788-106.37 96.187-145.81 147.545-64.93 84.183-128.95 168.074-231.02 219.429-91.42 46.117-224.32 26.919-293.47 112.857-53.88 66.782-102.32 151.414-136.55 225.39-33.23 71.614-44.55 152.763-94.66 219.563-111.34 148.38-305.88 33.78-413.86-24.79-93.65-50.7-186.56-106.948-290.892-143.833-64.346-22.716-143.958-43.619-217.771-17.2-112.659 40.247-207.415 130.273-265.027 219.263-111.901 172.63-174.947 381.7-213.488 568.25" stroke="url(#L)"/><path d="M2777.87 195.548c-55.36-40.274-132.19-69.003-208.18-25.77-62.78 35.752-104.05 99.526-142.39 151.962-62.91 85.782-125.01 172.53-226.55 225.551-92.48 48.294-227.38 23.613-303.21 105.156-31.27 33.648-50.68 78.409-74.4 115.975-22.21 35.244-43.83 70.713-61.78 107.457-33.93 70.206-47.39 149.381-96.3 215.191-110.43 148.9-303.54 38.74-413.58-19.17-93.35-48.96-186.12-103.208-290.2-137.725-65.537-21.723-143.858-39.366-217.493-12.392-109.456 40.041-204.537 120.377-264.524 206.657-63.767 91.77-101.52 197.27-137.336 296.24-32.083 88.59-58.775 178.32-77.275 268.49" stroke="url(#M)"/><path d="M2774.07 184.117c-55.08-40.162-131.49-67.595-205.92-22.617-61.97 37.532-102.07 102.568-139.32 156.081-60.95 87.197-120.9 176.729-221.79 231.787-94.06 51.244-230.1 20.605-312.5 98.122-32.9 30.904-50.15 74.566-72.34 110.624-22.36 36.316-44.72 72.631-63.47 110.037-35.36 70.458-51.04 150.549-101.79 216.129-110.48 143.2-299.6 37.69-409.44-18.05-92.99-47.03-185.34-99.167-289.222-131.502-63.628-19.68-137.968-34.309-208.83-10.465-109.091 36.456-209.074 113.257-272.12 197.047-66.209 88.06-102.321 191.61-137.586 288.36-32.702 89.81-59.554 180.61-78.672 272" stroke="url(#N)"/><path d="M2770.76 173.747c-55.02-39.977-130.51-66.075-203.37-19.351-61.43 39.198-100.15 105.425-136.59 159.903-59.27 88.499-116.85 180.742-217.2 238.279-94.43 54.017-226.57 19.07-316.04 87.827-38.01 29.067-54.3 70.995-76.37 108.237-22.24 37.5-45.56 74.735-65.27 113.061-35.71 69.347-54.05 147.427-103.55 212.197-109.96 143.24-296.1 43.92-409.03-11.24-128.06-62.36-319.384-188.185-492.336-131.956-107.332 34.874-209.731 104.896-275.608 186.116-69.327 85.39-104.483 187.2-139.131 282.73-32.701 89.81-59.723 180.87-78.612 272.19" stroke="url(#O)"/><path d="M2767.22 163.449c-54.78-40.05-129.68-64.296-201.16-16.382-60.61 40.977-98.29 108.096-133.63 163.652-57.54 89.987-112.81 184.754-212.1 244.812-96.11 58.223-224.97 18.559-321.09 80.665-41.75 26.794-58.19 65.911-79.79 103.821-21.94 38.426-45.38 76.104-65.94 114.906-36.58 69.01-57.2 147.007-107.68 211.067-110.22 140.06-291.83 47.05-406.35-6.78-130.91-61.051-317.628-177.942-490.504-119.901-104.754 35.072-205.991 95.341-274.876 173.441-73.24 83.37-108.118 184.48-142.597 279.76-32.253 88.85-58.657 178.69-77.444 268.75" stroke="url(#P)"/><path d="M2763.69 151.181c-54.15-39.64-129.27-62.999-199.01-13.598-58.27 41.247-94.31 106.414-127.88 161.202-57.05 93.095-110.37 193.16-210.6 257.391-96.87 62.14-220.54 19.801-322.37 72.709-45.56 23.522-65.24 59.592-86.32 98.354-21.75 39.795-45.8 78.691-67.27 118.598-37.66 69.559-60.9 148.802-113.9 212.853-111.15 134.03-286.45 47.37-401.52-4.25-130.6-58.495-309.818-164.516-479.591-110.934-104.888 33.074-210.359 87.964-282.7 163.904-75.513 79.4-109.746 176.22-143.446 269.21-32.871 90.07-59.723 180.87-78.554 272.37" stroke="url(#Q)"/><path d="M2760.72 143.08c-54.09-39.455-128.45-61.22-196.81-10.629-57.62 42.47-92.68 108.344-125.44 164.097-55.61 94.471-106.84 197.134-205.32 264.479-98.31 67.088-221.74 20.794-328.59 68.982-85.09 38.382-118.67 142.757-156.29 210.874-37.66 68.746-63.33 146.72-115.87 209.807-111.55 133.55-281.97 54.31-400.82 3.49-131.6-56.137-301.542-150.428-468.617-101.789-104.913 30.634-214.718 81.399-290.694 154.619-79.662 76.64-113.566 172.14-147.155 264.68-32.253 88.85-58.657 178.69-77.386 268.94" stroke="url(#R)"/><path d="M2757.47 132.896c-54.09-39.455-127.63-59.442-194.72-8.031-57.15 43.952-91.75 110.493-123.81 166.842-54.34 96.103-103.2 200.663-199.87 271.309-98.26 71.969-220.74 23.941-330.87 65.014-92.79 34.722-123.55 135.338-162.52 205.52-38.18 68.706-66.3 146.853-120.23 209.57-111.87 130.18-277.24 58.09-398.01 9.11-136.98-55.637-300.804-139.435-470.829-88.221-101.422 30.539-207.48 72.561-284.933 141.151-82.391 72.82-117.013 165.28-149.875 256.16-32.253 88.85-58.657 178.69-77.326 269.13" stroke="url(#S)"/><path d="M2754.44 122.64c-54.32-39.382-127.21-57.332-192.92-5.545-56.85 44.878-90.76 112.015-122.07 169.143-53.63 97.512-100.08 204.155-194.82 278.47-98.38 77.108-222.2 26.448-335.58 62.847-97.64 31.37-126.21 127.005-166.09 198.292-39.08 69.811-70.05 149.276-126.44 212.163-111.76 124.23-272.6 58.45-392.94 12.39-136.49-52.527-293.115-126.381-459.285-78.846-102.123 29.126-211.78 66.176-292.808 132.236-83.472 67.86-119.402 155.44-151.375 243.59-32.871 90.06-59.892 181.12-78.723 272.62" stroke="url(#T)"/><path d="M2751.19 112.456c-54.61-39.494-126.1-55.44-191.12-3.059-58.61 47.273-92.37 117.221-123.82 177.048-51.46 97.226-95.91 203.028-186.45 279.471-97.13 81.811-221.01 30.966-336.01 60.737-104.03 27.088-132.2 117.696-173.71 191.748-39.42 70.328-72.85 149.965-130.79 212.739-112.02 121.04-267.8 62.43-389.84 18.14-136-49.428-285.203-113.409-447.745-69.481-103.053 27.791-215.617 60.461-300.794 123.771-86.201 64.04-124.835 150.23-155.786 237.64-31.619 89.26-58.657 178.69-77.554 269.2" stroke="url(#U)"/><path d="M2747.94 102.271c-54.78-39.236-125.51-53.589-189.67-.87-58.37 48.014-91.78 118.259-122.77 178.754-50.76 98.635-92.96 205.963-181.06 286.116-94.17 85.559-217 37.234-331.73 59.167-112.16 21.318-141.7 106.853-185.23 184.815-39.25 70.07-74.75 148.736-132.64 210.877-111.96 120.42-263.78 69.51-389.13 26.69-140.22-47.67-282.041-101.155-445.504-57.749-101.285 27.029-212.19 53.859-299.015 112.789-85.006 57.54-128.829 140.09-157.589 223.33-31.375 90.82-59.487 181.61-78.655 273.63" stroke="url(#V)"/><path d="M2744.69 92.087c-54.78-39.236-124.92-51.737-188.34.948-58.19 48.569-91.25 119.112-121.9 179.904-50.23 100.302-90.7 209.118-176.12 292.907-92.12 90.413-214.71 42.828-330.13 59.471-115.7 16.53-149.19 95.983-193.95 176.379-39.31 70.698-77.21 149.723-136.81 212.004-112 117.16-259.34 73.19-386.15 32.87-140.82-44.82-277.693-89.884-438.704-47.465-101.404 26.655-212.189 48.355-302.14 103.795-85.114 52.47-132.123 131.34-161.136 212.22-32.406 90.73-59.478 182.42-78.419 274.37" stroke="url(#W)"/><path d="M2741.5 82.088c-54.72-39.05-124.62-49.998-187.12 2.396-58.13 48.754-91.2 119.297-121.44 180.572-50.21 101.929-88.78 211.974-171.19 299.697-89.78 95.379-211.66 49.203-327.64 60.925-117.41 11.974-157.39 84.517-202.87 167.388-39.24 71.697-79.71 151.338-140.63 213.424-111.97 114.1-254.89 76.88-383.22 38.88-139.13-41.08-270.431-78.943-426.885-38.79-103.179 26.61-215.839 44-309.77 96.43-87.269 48.87-136.078 125.26-165.783 205.54-32.938 89.07-58.413 180.25-77.082 270.68" stroke="url(#X)"/><path d="M2738.25 71.903c-54.61-38.68-124.49-48.813-186.25 3.547-59.77 50.706-93.73 123.981-124.12 187.141-48.84 101.491-85.76 210.398-163.35 299.845-87.15 100.458-207.19 56.14-324.24 63.715-116.82 7.502-166.37 72.9-212 157.656-39.17 72.696-81.7 152.992-144.56 215.294-111.72 110.949-250.97 80.519-380.47 45.139-142.71-38.91-268.028-67.468-425.176-27.91-101.986 25.61-212.337 39.21-307.172 87.24-85.889 43.74-136.758 114.45-167.528 191.4-35.854 89.39-59.757 183.13-78.706 274.26" stroke="url(#Y)"/><path d="M2734.99 61.72c-54.54-38.496-124.01-47.333-185.49 4.326-60.06 50.594-94.36 123.572-124.41 187.029-48.83 103.119-84.19 212.957-158.59 306.081-84.07 105.39-201.67 63.968-319.73 67.581-114.58 3.52-175.2 61.026-221.33 147.37-39.56 73.839-83.63 154.831-148.37 217.531-111.41 107.992-247.16 83.792-377.55 51.142-139.69-34.98-262.045-58.971-413.588-19.98-104.151 26.72-215.921 35.87-314.558 81.43-186.85 85.97-218.437 303.77-249.891 455" stroke="url(#Z)"/></g></g><defs><linearGradient id="A" x1="1387.8" y1="644.996" x2="1626.37" y2="1392.34" gradientUnits="userSpaceOnUse"><stop stop-color="#DB50D1"/><stop offset="1" stop-color="#2B98ED" stop-opacity=".66"/></linearGradient><linearGradient id="a" x1="1314.07" y1="923.368" x2="1563.87" y2="1705.9" gradientUnits="userSpaceOnUse"><stop stop-color="#DB50D1"/><stop offset="1" stop-color="#2B98ED" stop-opacity=".66"/></linearGradient><linearGradient id="c" x1="1304.83" y1="908.606" x2="1553.2" y2="1686.66" gradientUnits="userSpaceOnUse"><stop stop-color="#DB50D1"/><stop offset="1" stop-color="#2B98ED" stop-opacity=".66"/></linearGradient><linearGradient id="d" x1="1301.55" y1="900.698" x2="1549.14" y2="1676.33" gradientUnits="userSpaceOnUse"><stop stop-color="#DB50D1"/><stop offset="1" stop-color="#2B98ED" stop-opacity=".66"/></linearGradient><linearGradient id="e" x1="1300.3" y1="892.017" x2="1547.33" y2="1665.89" gradientUnits="userSpaceOnUse"><stop stop-color="#DB50D1"/><stop offset="1" stop-color="#2B98ED" stop-opacity=".66"/></linearGradient><linearGradient id="f" x1="1305.44" y1="881.775" x2="1551.66" y2="1653.08" gradientUnits="userSpaceOnUse"><stop stop-color="#DB50D1"/><stop offset="1" stop-color="#2B98ED" stop-opacity=".66"/></linearGradient><linearGradient id="g" x1="1309.9" y1="871.307" x2="1555.54" y2="1640.82" gradientUnits="userSpaceOnUse"><stop stop-color="#DB50D1"/><stop offset="1" stop-color="#2B98ED" stop-opacity=".66"/></linearGradient><linearGradient id="h" x1="1314.42" y1="860.697" x2="1559.46" y2="1628.35" gradientUnits="userSpaceOnUse"><stop stop-color="#DB50D1"/><stop offset="1" stop-color="#2B98ED" stop-opacity=".66"/></linearGradient><linearGradient id="i" x1="1319.36" y1="849.646" x2="1563.72" y2="1615.15" gradientUnits="userSpaceOnUse"><stop stop-color="#DB50D1"/><stop offset="1" stop-color="#2B98ED" stop-opacity=".66"/></linearGradient><linearGradient id="j" x1="1324.49" y1="839.133" x2="1568.23" y2="1602.7" gradientUnits="userSpaceOnUse"><stop stop-color="#DB50D1"/><stop offset="1" stop-color="#2B98ED" stop-opacity=".66"/></linearGradient><linearGradient id="k" x1="1329.57" y1="828.182" x2="1572.83" y2="1590.21" gradientUnits="userSpaceOnUse"><stop stop-color="#DB50D1"/><stop offset="1" stop-color="#2B98ED" stop-opacity=".66"/></linearGradient><linearGradient id="l" x1="1334.04" y1="816.73" x2="1576.88" y2="1577.49" gradientUnits="userSpaceOnUse"><stop stop-color="#DB50D1"/><stop offset="1" stop-color="#2B98ED" stop-opacity=".66"/></linearGradient><linearGradient id="m" x1="1338.93" y1="805.488" x2="1581.21" y2="1564.48" gradientUnits="userSpaceOnUse"><stop stop-color="#DB50D1"/><stop offset="1" stop-color="#2B98ED" stop-opacity=".66"/></linearGradient><linearGradient id="n" x1="1343.69" y1="794.332" x2="1585.63" y2="1552.25" gradientUnits="userSpaceOnUse"><stop stop-color="#DB50D1"/><stop offset="1" stop-color="#2B98ED" stop-opacity=".66"/></linearGradient><linearGradient id="o" x1="1348.27" y1="783.139" x2="1589.6" y2="1539.15" gradientUnits="userSpaceOnUse"><stop stop-color="#DB50D1"/><stop offset="1" stop-color="#2B98ED" stop-opacity=".66"/></linearGradient><linearGradient id="p" x1="1352.85" y1="771.995" x2="1593.91" y2="1527.17" gradientUnits="userSpaceOnUse"><stop stop-color="#DB50D1"/><stop offset="1" stop-color="#2B98ED" stop-opacity=".66"/></linearGradient><linearGradient id="q" x1="1357.06" y1="760.344" x2="1597.74" y2="1514.31" gradientUnits="userSpaceOnUse"><stop stop-color="#DB50D1"/><stop offset="1" stop-color="#2B98ED" stop-opacity=".66"/></linearGradient><linearGradient id="r" x1="1360.71" y1="748.68" x2="1601.06" y2="1501.62" gradientUnits="userSpaceOnUse"><stop stop-color="#DB50D1"/><stop offset="1" stop-color="#2B98ED" stop-opacity=".66"/></linearGradient><linearGradient id="s" x1="1363.97" y1="736.94" x2="1604.35" y2="1489.96" gradientUnits="userSpaceOnUse"><stop stop-color="#DB50D1"/><stop offset="1" stop-color="#2B98ED" stop-opacity=".66"/></linearGradient><linearGradient id="t" x1="1366.47" y1="723.188" x2="1607.29" y2="1477.6" gradientUnits="userSpaceOnUse"><stop stop-color="#DB50D1"/><stop offset="1" stop-color="#2B98ED" stop-opacity=".66"/></linearGradient><linearGradient id="u" x1="1369.79" y1="711.699" x2="1610.44" y2="1465.58" gradientUnits="userSpaceOnUse"><stop stop-color="#DB50D1"/><stop offset="1" stop-color="#2B98ED" stop-opacity=".66"/></linearGradient><linearGradient id="v" x1="1373.09" y1="701.179" x2="1613.29" y2="1453.65" gradientUnits="userSpaceOnUse"><stop stop-color="#DB50D1"/><stop offset="1" stop-color="#2B98ED" stop-opacity=".66"/></linearGradient><linearGradient id="w" x1="1376.07" y1="689.459" x2="1616.07" y2="1441.33" gradientUnits="userSpaceOnUse"><stop stop-color="#DB50D1"/><stop offset="1" stop-color="#2B98ED" stop-opacity=".66"/></linearGradient><linearGradient id="x" x1="1378.98" y1="677.952" x2="1618.75" y2="1429.08" gradientUnits="userSpaceOnUse"><stop stop-color="#DB50D1"/><stop offset="1" stop-color="#2B98ED" stop-opacity=".66"/></linearGradient><linearGradient id="y" x1="1381.72" y1="665.842" x2="1621.22" y2="1416.13" gradientUnits="userSpaceOnUse"><stop stop-color="#DB50D1"/><stop offset="1" stop-color="#2B98ED" stop-opacity=".66"/></linearGradient><linearGradient id="z" x1="1384.71" y1="655.554" x2="1623.93" y2="1404.95" gradientUnits="userSpaceOnUse"><stop stop-color="#DB50D1"/><stop offset="1" stop-color="#2B98ED" stop-opacity=".66"/></linearGradient><linearGradient id="b" x1="1308.76" y1="916.192" x2="1557.76" y2="1696.23" gradientUnits="userSpaceOnUse"><stop stop-color="#DB50D1"/><stop offset="1" stop-color="#2B98ED" stop-opacity=".66"/></linearGradient><linearGradient id="B" x1="1390.35" y1="634.872" x2="1628.42" y2="1380.67" gradientUnits="userSpaceOnUse"><stop stop-color="#DB50D1"/><stop offset="1" stop-color="#2B98ED" stop-opacity=".66"/></linearGradient><linearGradient id="C" x1="1392.76" y1="624.976" x2="1630.22" y2="1368.87" gradientUnits="userSpaceOnUse"><stop stop-color="#DB50D1"/><stop offset="1" stop-color="#2B98ED" stop-opacity=".66"/></linearGradient><linearGradient id="D" x1="1394.7" y1="615.605" x2="1631.33" y2="1356.89" gradientUnits="userSpaceOnUse"><stop stop-color="#DB50D1"/><stop offset="1" stop-color="#2B98ED" stop-opacity=".66"/></linearGradient><linearGradient id="E" x1="1396.85" y1="606.155" x2="1632.82" y2="1345.39" gradientUnits="userSpaceOnUse"><stop stop-color="#DB50D1"/><stop offset="1" stop-color="#2B98ED" stop-opacity=".66"/></linearGradient><linearGradient id="F" x1="1398.4" y1="597.129" x2="1633.48" y2="1333.55" gradientUnits="userSpaceOnUse"><stop stop-color="#DB50D1"/><stop offset="1" stop-color="#2B98ED" stop-opacity=".66"/></linearGradient><linearGradient id="G" x1="1399.58" y1="588.495" x2="1633.92" y2="1322.6" gradientUnits="userSpaceOnUse"><stop stop-color="#DB50D1"/><stop offset="1" stop-color="#2B98ED" stop-opacity=".66"/></linearGradient><linearGradient id="H" x1="1400.4" y1="579.643" x2="1633.92" y2="1311.17" gradientUnits="userSpaceOnUse"><stop stop-color="#DB50D1"/><stop offset="1" stop-color="#2B98ED" stop-opacity=".66"/></linearGradient><linearGradient id="I" x1="1399.91" y1="571.399" x2="1632.49" y2="1300" gradientUnits="userSpaceOnUse"><stop stop-color="#DB50D1"/><stop offset="1" stop-color="#2B98ED" stop-opacity=".66"/></linearGradient><linearGradient id="J" x1="1399.07" y1="563.259" x2="1630.96" y2="1289.67" gradientUnits="userSpaceOnUse"><stop stop-color="#DB50D1"/><stop offset="1" stop-color="#2B98ED" stop-opacity=".66"/></linearGradient><linearGradient id="K" x1="1397.96" y1="556.995" x2="1628.89" y2="1280.42" gradientUnits="userSpaceOnUse"><stop stop-color="#DB50D1"/><stop offset="1" stop-color="#2B98ED" stop-opacity=".66"/></linearGradient><linearGradient id="L" x1="1396.24" y1="551.286" x2="1626.41" y2="1272.34" gradientUnits="userSpaceOnUse"><stop stop-color="#DB50D1"/><stop offset="1" stop-color="#2B98ED" stop-opacity=".66"/></linearGradient><linearGradient id="M" x1="1392.19" y1="540.525" x2="1621.48" y2="1258.83" gradientUnits="userSpaceOnUse"><stop stop-color="#DB50D1"/><stop offset="1" stop-color="#2B98ED" stop-opacity=".66"/></linearGradient><linearGradient id="N" x1="1389.85" y1="532.779" x2="1618.29" y2="1248.42" gradientUnits="userSpaceOnUse"><stop stop-color="#DB50D1"/><stop offset="1" stop-color="#2B98ED" stop-opacity=".66"/></linearGradient><linearGradient id="O" x1="1387.3" y1="525.192" x2="1614.99" y2="1238.46" gradientUnits="userSpaceOnUse"><stop stop-color="#DB50D1"/><stop offset="1" stop-color="#2B98ED" stop-opacity=".66"/></linearGradient><linearGradient id="P" x1="1384.57" y1="517.406" x2="1611.39" y2="1227.97" gradientUnits="userSpaceOnUse"><stop stop-color="#DB50D1"/><stop offset="1" stop-color="#2B98ED" stop-opacity=".66"/></linearGradient><linearGradient id="Q" x1="1381.74" y1="507.331" x2="1607.86" y2="1215.71" gradientUnits="userSpaceOnUse"><stop stop-color="#DB50D1"/><stop offset="1" stop-color="#2B98ED" stop-opacity=".66"/></linearGradient><linearGradient id="R" x1="1379.65" y1="501.601" x2="1604.95" y2="1207.38" gradientUnits="userSpaceOnUse"><stop stop-color="#DB50D1"/><stop offset="1" stop-color="#2B98ED" stop-opacity=".66"/></linearGradient><linearGradient id="S" x1="1377.09" y1="493.571" x2="1601.7" y2="1197.2" gradientUnits="userSpaceOnUse"><stop stop-color="#DB50D1"/><stop offset="1" stop-color="#2B98ED" stop-opacity=".66"/></linearGradient><linearGradient id="T" x1="1374.73" y1="485.416" x2="1598.61" y2="1186.76" gradientUnits="userSpaceOnUse"><stop stop-color="#DB50D1"/><stop offset="1" stop-color="#2B98ED" stop-opacity=".66"/></linearGradient><linearGradient id="U" x1="1371.78" y1="477.378" x2="1595.13" y2="1177.05" gradientUnits="userSpaceOnUse"><stop stop-color="#DB50D1"/><stop offset="1" stop-color="#2B98ED" stop-opacity=".66"/></linearGradient><linearGradient id="V" x1="1369.46" y1="468.901" x2="1592.17" y2="1166.58" gradientUnits="userSpaceOnUse"><stop stop-color="#DB50D1"/><stop offset="1" stop-color="#2B98ED" stop-opacity=".66"/></linearGradient><linearGradient id="W" x1="1366.38" y1="460.441" x2="1588.45" y2="1156.13" gradientUnits="userSpaceOnUse"><stop stop-color="#DB50D1"/><stop offset="1" stop-color="#2B98ED" stop-opacity=".66"/></linearGradient><linearGradient id="X" x1="1363.75" y1="451.807" x2="1585.32" y2="1145.91" gradientUnits="userSpaceOnUse"><stop stop-color="#DB50D1"/><stop offset="1" stop-color="#2B98ED" stop-opacity=".66"/></linearGradient><linearGradient id="Y" x1="1360.83" y1="442.662" x2="1582.13" y2="1135.91" gradientUnits="userSpaceOnUse"><stop stop-color="#DB50D1"/><stop offset="1" stop-color="#2B98ED" stop-opacity=".66"/></linearGradient><linearGradient id="Z" x1="1357.9" y1="433.504" x2="1578.93" y2="1125.91" gradientUnits="userSpaceOnUse"><stop stop-color="#DB50D1"/><stop offset="1" stop-color="#2B98ED" stop-opacity=".66"/></linearGradient></defs></svg>