<?xml version="1.0" encoding="UTF-8"?>
<svg width="32px" height="32px" viewBox="0 0 32 32" version="1.1" xmlns="http://www.w3.org/2000/svg" xmlns:xlink="http://www.w3.org/1999/xlink">
    <title>linkedin</title>
    <g id="Page-1" stroke="none" stroke-width="1" fill="none" fill-rule="evenodd">
        <g id="linkedin" fill-rule="nonzero">
            <path d="M16,0 C20.4444333,0 24.2222333,1.55556667 27.3333333,4.66666667 C30.4444333,7.77776667 32,11.5555667 32,16 C32,20.4 30.4444333,24.1666667 27.3333333,27.3 C24.2222333,30.4333333 20.4444333,32 16,32 C11.6,32 7.83333333,30.4333333 4.7,27.3 C1.56666667,24.1666667 0,20.4 0,16 C0,11.5555667 1.56666667,7.77776667 4.7,4.66666667 C7.83333333,1.55556667 11.6,0 16,0 C16,0 16,0 16,0" id="Path" fill="#55597B"></path>
            <path d="M12.0666667,22.6 C12.0666667,22.6 12.0666667,12.2 12.0666667,12.2 C12.0666667,12.2 8.86666667,12.2 8.86666667,12.2 C8.86666667,12.2 8.86666667,22.6 8.86666667,22.6 C8.86666667,22.6 12.0666667,22.6 12.0666667,22.6 C12.0666667,22.6 12.0666667,22.6 12.0666667,22.6 M10.4666667,10.8666667 C11.6222333,10.8666667 12.2,10.3333333 12.2,9.26666667 C12.2,8.2 11.6222333,7.66666667 10.4666667,7.66666667 C9.97776667,7.66666667 9.56666667,7.82223333 9.23333333,8.13333333 C8.9,8.44443333 8.73333333,8.82223333 8.73333333,9.26666667 C8.73333333,10.3333333 9.3111,10.8666667 10.4666667,10.8666667 C10.4666667,10.8666667 10.4666667,10.8666667 10.4666667,10.8666667 M23.9333333,22.6 C23.9333333,22.6 23.9333333,16.4666667 23.9333333,16.4666667 C23.9333333,15 23.5889,13.8777667 22.9,13.1 C22.2111,12.3222333 21.3111,11.9333333 20.2,11.9333333 C18.7333333,11.9333333 17.6666667,12.4889 17,13.6 C17,13.6 16.9333333,13.6 16.9333333,13.6 C16.9333333,13.6 16.7333333,12.2 16.7333333,12.2 C16.7333333,12.2 13.9333333,12.2 13.9333333,12.2 C13.9777667,12.8222333 14,13.9333333 14,15.5333333 C14,15.5333333 14,22.6 14,22.6 C14,22.6 17.2666667,22.6 17.2666667,22.6 C17.2666667,22.6 17.2666667,16.6 17.2666667,16.6 C17.2666667,16.2 17.3111,15.9333333 17.4,15.8 C17.6666667,14.9555667 18.2222333,14.5333333 19.0666667,14.5333333 C20.1333333,14.5333333 20.6666667,15.2889 20.6666667,16.8 C20.6666667,16.8 20.6666667,22.6 20.6666667,22.6 C20.6666667,22.6 23.9333333,22.6 23.9333333,22.6 C23.9333333,22.6 23.9333333,22.6 23.9333333,22.6" id="Combined-Shape" fill="#FFFFFF"></path>
        </g>
    </g>
</svg>