<svg width="212" height="70" fill="none" xmlns="http://www.w3.org/2000/svg"><g clip-path="url(#a)"><path d="M101.902 18.866c1.044 1.04 1.576 2.48 1.576 4.321 0 .492-.055 1.112-.165 1.878l-1.887 10.519h-6.355l1.721-9.699c.037-.346.074-.583.074-.747 0-.73-.22-1.295-.678-1.714-.458-.401-1.062-.62-1.85-.62-.934 0-1.703.274-2.344.802-.641.529-1.044 1.295-1.21 2.261l-1.757 9.699H82.67l1.758-9.699c.037-.346.074-.565.074-.675 0-.747-.22-1.33-.678-1.75-.458-.419-1.08-.62-1.886-.62-.935 0-1.722.274-2.363.82-.641.548-1.063 1.332-1.227 2.334v-.127l-1.722 9.735h-6.355l3.168-18.085h6.374l-.495 2.735a7.56 7.56 0 0 1 2.546-2.115c1.026-.529 2.162-.784 3.425-.784 1.356 0 2.51.31 3.425.912.934.601 1.594 1.458 1.978 2.588a9.484 9.484 0 0 1 2.986-2.534 7.602 7.602 0 0 1 3.7-.948c1.978-.036 3.479.492 4.523 1.513zM111.408 17.481l2.106 10.118 5.404-10.118h7.033l-16.228 26.744h-6.996l6.117-9.407-4.506-17.319h7.07v-.018zM171.284 60.77h.835c-.146.89-1.006 1.543-2.114 1.543-1.455 0-2.339-1.01-2.339-2.607 0-1.577.898-2.646 2.3-2.646 1.372 0 2.217.996 2.217 2.534v.322h-3.643v.049c0 .971.571 1.611 1.484 1.611.645 0 1.119-.327 1.26-.806zm-1.333-2.973c-.796 0-1.352.61-1.406 1.455h2.759c-.02-.85-.552-1.455-1.353-1.455zM165.918 62.226V55.18h.85v7.046h-.85zM162.842 57.06c1.294 0 2.173 1.035 2.173 2.627 0 1.591-.874 2.627-2.154 2.627-.727 0-1.313-.357-1.616-.914h-.019v2.52h-.85v-6.773h.806v.86h.019c.313-.572.903-.947 1.641-.947zm-.166 4.506c.903 0 1.47-.727 1.47-1.88 0-1.147-.567-1.88-1.47-1.88-.869 0-1.455.753-1.455 1.88 0 1.133.586 1.88 1.455 1.88zM152.339 62.226v-5.078h.801v.81h.019c.239-.537.757-.898 1.441-.898.693 0 1.206.351 1.425.966h.02c.283-.605.879-.966 1.592-.966 1.006 0 1.655.654 1.655 1.66v3.506h-.85v-3.311c0-.693-.385-1.103-1.054-1.103-.674 0-1.148.498-1.148 1.186v3.228h-.849v-3.404c0-.61-.411-1.01-1.04-1.01-.674 0-1.163.527-1.163 1.23v3.184h-.849zM150.767 56.244a.531.531 0 1 1 0-1.064c.297 0 .532.234.532.532a.53.53 0 0 1-.532.532zm-.425 5.982v-5.078h.849v5.078h-.849zM145.552 58.549c0-.87.766-1.49 1.865-1.49 1.113 0 1.855.655 1.89 1.553h-.811c-.063-.532-.454-.86-1.079-.86-.62 0-1.03.308-1.03.753 0 .351.259.59.825.727l.806.196c1.025.249 1.396.65 1.396 1.377 0 .883-.835 1.508-1.968 1.508-1.191 0-1.933-.6-2.031-1.552h.85c.102.58.493.86 1.181.86.689 0 1.114-.294 1.114-.753 0-.366-.201-.576-.782-.718l-.805-.195c-.957-.23-1.421-.674-1.421-1.406zM138.843 58.549c0-.87.766-1.49 1.865-1.49 1.113 0 1.855.655 1.89 1.553h-.811c-.063-.532-.454-.86-1.079-.86-.62 0-1.03.308-1.03.753 0 .351.259.59.825.727l.806.196c1.025.249 1.396.65 1.396 1.377 0 .883-.835 1.508-1.968 1.508-1.191 0-1.933-.6-2.031-1.552h.85c.102.58.493.86 1.181.86.689 0 1.114-.294 1.114-.753 0-.366-.201-.576-.782-.718l-.805-.195c-.957-.23-1.421-.674-1.421-1.406zM137.358 56.244a.533.533 0 1 1 .002-1.066.533.533 0 0 1-.002 1.066zm-.424 5.982v-5.078h.849v5.078h-.849zM130.093 58.549c0-.87.766-1.49 1.865-1.49 1.113 0 1.855.655 1.89 1.553h-.811c-.063-.532-.454-.86-1.079-.86-.62 0-1.03.308-1.03.753 0 .351.259.59.825.727l.806.196c1.025.249 1.396.65 1.396 1.377 0 .883-.835 1.508-1.968 1.508-1.191 0-1.933-.6-2.031-1.552h.85c.102.58.493.86 1.181.86.689 0 1.114-.294 1.114-.753 0-.366-.201-.576-.782-.718l-.805-.195c-.957-.23-1.421-.674-1.421-1.406zM129.39 58.813h-.83c-.122-.552-.552-1.006-1.299-1.006-.879 0-1.475.727-1.475 1.88 0 1.181.606 1.88 1.485 1.88.693 0 1.147-.367 1.293-.977h.835c-.131 1.01-.981 1.723-2.133 1.723-1.407 0-2.344-.99-2.344-2.627 0-1.601.932-2.626 2.334-2.626 1.269 0 2.026.84 2.134 1.752zM123.599 56.244a.531.531 0 1 1 0-1.064c.297 0 .532.234.532.532a.53.53 0 0 1-.532.532zm-.425 5.982v-5.078h.849v5.078h-.849zM120.386 55.922h.849v1.226h.987v.698h-.987v3.017c0 .464.196.674.63.674.098 0 .293-.014.352-.024v.713a3.033 3.033 0 0 1-.537.039c-.933 0-1.294-.381-1.294-1.358v-3.061h-.757v-.698h.757v-1.226zM115.674 64.125c-.103 0-.274-.01-.366-.03v-.712c.092.02.224.024.332.024.473 0 .737-.23.932-.82l.117-.357-1.875-5.082h.909l1.406 4.228h.015l1.406-4.228h.893l-1.997 5.434c-.434 1.187-.854 1.543-1.772 1.543zM113.252 62.226V55.18h.85v7.046h-.85zM109.673 62.313c-1.011 0-1.69-.61-1.69-1.523 0-.87.669-1.416 1.841-1.484l1.455-.083v-.425c0-.62-.41-.991-1.113-.991-.654 0-1.064.307-1.172.805h-.82c.058-.879.81-1.552 2.012-1.552 1.191 0 1.943.644 1.943 1.655v3.51h-.806v-.873h-.019c-.303.58-.948.962-1.631.962zm.19-.722c.801 0 1.416-.562 1.416-1.294v-.415l-1.357.083c-.684.044-1.074.346-1.074.825 0 .483.405.8 1.015.8zM102.915 62.226v-5.078h.801v.81h.019c.284-.547.826-.898 1.612-.898 1.113 0 1.757.717 1.757 1.87v3.296h-.849V59.08c0-.82-.386-1.27-1.167-1.27-.801 0-1.323.567-1.323 1.426v2.989h-.85zM99.38 62.313c-1.01 0-1.69-.61-1.69-1.523 0-.87.67-1.416 1.841-1.484l1.455-.083v-.425c0-.62-.41-.991-1.113-.991-.654 0-1.064.307-1.172.805h-.82c.058-.879.81-1.552 2.012-1.552 1.191 0 1.943.644 1.943 1.655v3.51h-.806v-.873h-.019c-.303.58-.948.962-1.631.962zm.19-.722c.801 0 1.416-.562 1.416-1.294v-.415l-1.357.083c-.684.044-1.074.346-1.074.825 0 .483.405.8 1.015.8zM93.1 55.922h.85v1.226h.986v.698h-.986v3.017c0 .464.195.674.63.674.098 0 .293-.014.352-.024v.713a3.029 3.029 0 0 1-.538.039c-.932 0-1.293-.381-1.293-1.358v-3.061h-.757v-.698h.757v-1.226zM89.546 62.226v-5.078h.8v.83h.02a1.244 1.244 0 0 1 1.23-.918c.147 0 .274.024.343.034v.825a1.711 1.711 0 0 0-.455-.049c-.659 0-1.088.474-1.088 1.192v3.164h-.85zM86.01 62.313c-1.01 0-1.689-.61-1.689-1.523 0-.87.67-1.416 1.841-1.484l1.455-.083v-.425c0-.62-.41-.991-1.113-.991-.654 0-1.065.307-1.172.805h-.82c.058-.879.81-1.552 2.011-1.552 1.192 0 1.944.644 1.944 1.655v3.51h-.806v-.873h-.02c-.302.58-.947.962-1.63.962zm.191-.722c.801 0 1.416-.562 1.416-1.294v-.415l-1.357.083c-.684.044-1.075.346-1.075.825 0 .483.406.8 1.016.8zM76.49 62.226v-5.078h.8v.81h.02c.239-.537.756-.898 1.44-.898.693 0 1.206.351 1.426.966h.02c.282-.605.878-.966 1.591-.966 1.006 0 1.655.654 1.655 1.66v3.506h-.85v-3.311c0-.693-.385-1.103-1.054-1.103-.674 0-1.147.498-1.147 1.186v3.228h-.85v-3.404c0-.61-.41-1.01-1.04-1.01-.674 0-1.162.527-1.162 1.23v3.184h-.85zM70.342 60.336h.879c.102.757.805 1.216 1.816 1.216.957 0 1.65-.503 1.65-1.197 0-.59-.39-.981-1.367-1.196l-.78-.17c-1.412-.308-2.022-.948-2.022-1.949 0-1.162 1.025-1.977 2.485-1.977 1.406 0 2.422.84 2.46 2.036h-.878c-.078-.772-.688-1.245-1.606-1.245-.88 0-1.558.43-1.558 1.147 0 .557.376.938 1.338 1.147l.781.171c1.47.323 2.05.908 2.05 1.905 0 1.303-1.025 2.119-2.602 2.119-1.538 0-2.563-.791-2.646-2.007zM143.24 18.21c1.264.748 2.271 1.842 2.986 3.264.714 1.422 1.08 3.08 1.08 4.977 0 1.896-.366 3.555-1.08 4.959-.715 1.403-1.722 2.479-2.986 3.244-1.264.748-2.711 1.13-4.341 1.13-1.776 0-3.278-.455-4.524-1.348-1.245-.894-2.088-2.078-2.546-3.537v13.29h-3.04V17.317h3.04v4.649c.477-1.459 1.319-2.643 2.546-3.537 1.227-.893 2.748-1.349 4.524-1.349 1.63 0 3.077.383 4.341 1.13zm-8.407 2.37a5.733 5.733 0 0 0-2.234 2.334c-.531 1.02-.806 2.188-.806 3.518 0 1.331.275 2.498.806 3.5a5.733 5.733 0 0 0 2.234 2.334 6.318 6.318 0 0 0 3.205.839c1.887 0 3.407-.583 4.524-1.768 1.118-1.186 1.685-2.826 1.685-4.904 0-2.079-.567-3.72-1.685-4.905-1.117-1.185-2.637-1.768-4.524-1.768-1.19 0-2.252.273-3.205.82zM167.161 17.317v18.23h-3.041v-4.283c-.476 1.476-1.3 2.625-2.491 3.409-1.19.784-2.582 1.185-4.157 1.185-2.107 0-3.828-.675-5.147-2.042-1.319-1.367-1.96-3.318-1.96-5.87V17.317h3.041v10.319c0 1.823.476 3.208 1.41 4.193.934.984 2.198 1.476 3.81 1.476 1.666 0 3.003-.528 4.011-1.604 1.007-1.076 1.501-2.643 1.501-4.703v-9.7h3.023v.02zM174.525 10.973v24.575h-3.041V10.973h3.041zM189.542 18.684c1.264 1.076 2.015 2.516 2.29 4.34h-2.912c-.128-1.076-.586-1.97-1.356-2.68-.769-.712-1.795-1.04-3.095-1.04-1.099 0-1.941.255-2.546.784-.604.529-.916 1.221-.916 2.115 0 .656.202 1.203.623 1.604.403.401.916.711 1.539.93.604.219 1.447.437 2.527.674 1.356.31 2.455.62 3.279.948.842.328 1.538.839 2.143 1.55.586.711.879 1.659.879 2.862 0 1.477-.568 2.698-1.685 3.628-1.118.93-2.619 1.404-4.488 1.404-2.179 0-3.956-.529-5.329-1.568-1.374-1.04-2.198-2.498-2.436-4.357h2.93c.11 1.112.586 2.005 1.447 2.698.861.693 1.978 1.021 3.388 1.021 1.044 0 1.869-.273 2.455-.802.586-.529.879-1.222.879-2.097 0-.71-.22-1.276-.641-1.695a4.17 4.17 0 0 0-1.575-.966c-.623-.22-1.484-.456-2.565-.693-1.355-.31-2.435-.62-3.26-.93a5.025 5.025 0 0 1-2.069-1.477c-.568-.674-.843-1.586-.843-2.734 0-1.532.568-2.753 1.703-3.701 1.136-.948 2.675-1.404 4.634-1.404 2.07-.018 3.737.51 5 1.586zM212.015 27.07h-14.653c.074 2.079.66 3.646 1.777 4.686 1.117 1.039 2.491 1.568 4.121 1.568 1.465 0 2.692-.365 3.681-1.113.989-.747 1.594-1.731 1.814-2.971h3.242a7.659 7.659 0 0 1-1.484 3.39c-.769 1.003-1.758 1.77-2.985 2.334-1.228.547-2.601.839-4.14.839-1.758 0-3.315-.383-4.67-1.13-1.356-.748-2.418-1.824-3.187-3.246-.769-1.403-1.154-3.062-1.154-4.958 0-1.896.385-3.574 1.154-4.977.769-1.422 1.831-2.498 3.187-3.264 1.355-.747 2.912-1.13 4.67-1.13 1.777 0 3.334.383 4.652 1.13 1.319.748 2.345 1.769 3.041 3.027.696 1.258 1.044 2.662 1.044 4.193a8.741 8.741 0 0 1-.11 1.622zm-3.608-4.849c-.513-.912-1.209-1.586-2.107-2.024a6.472 6.472 0 0 0-2.893-.656c-1.667 0-3.077.51-4.213 1.55-1.136 1.02-1.74 2.534-1.832 4.54h11.704c.073-1.368-.146-2.498-.659-3.41z" fill="#fff"/><path d="M34.737 14a3.123 3.123 0 0 0-3.132 3.117v46.088a3.123 3.123 0 0 0 3.132 3.117 3.123 3.123 0 0 0 3.132-3.117V17.118c0-1.714-1.41-3.118-3.132-3.118z" fill="url(#b)"/><path d="M55.323 45.831a3.125 3.125 0 0 0 3.132-3.117 3.125 3.125 0 0 0-3.132-3.118 3.125 3.125 0 0 0-3.132 3.118 3.125 3.125 0 0 0 3.132 3.117z" fill="url(#c)"/><path d="M14.132 40.708a3.125 3.125 0 0 0 3.132-3.117 3.125 3.125 0 0 0-3.132-3.118A3.125 3.125 0 0 0 11 37.591a3.125 3.125 0 0 0 3.132 3.117z" fill="url(#d)"/><path d="M45.03 39.578a3.123 3.123 0 0 0-3.132 3.118V52.94a3.123 3.123 0 0 0 3.132 3.118c1.722 0 3.132-1.404 3.132-3.118V42.696c0-1.714-1.41-3.118-3.132-3.118z" fill="url(#e)"/><path d="M24.445 24.227a3.123 3.123 0 0 0-3.133 3.118v10.246a3.123 3.123 0 0 0 3.133 3.117c1.721 0 3.131-1.404 3.131-3.117V27.345a3.123 3.123 0 0 0-3.131-3.117z" fill="url(#f)"/></g><defs><linearGradient id="b" x1="34.732" y1="14.087" x2="34.732" y2="66.161" gradientUnits="userSpaceOnUse"><stop offset="0" stop-color="#01E3CA"/><stop offset="1" stop-color="#00ACE6"/></linearGradient><linearGradient id="c" x1="55.322" y1="45.597" x2="55.322" y2="39.55" gradientUnits="userSpaceOnUse"><stop offset="0" stop-color="#DB50D1"/><stop offset=".999" stop-color="#FF688F"/></linearGradient><linearGradient id="d" x1="14.14" y1="34.506" x2="14.14" y2="40.645" gradientUnits="userSpaceOnUse"><stop offset="0" stop-color="#DB50D1"/><stop offset="1" stop-color="#C353EA"/></linearGradient><linearGradient id="e" x1="45.027" y1="39.424" x2="45.027" y2="55.725" gradientUnits="userSpaceOnUse"><stop offset="0" stop-color="#FF8C73"/><stop offset=".999" stop-color="#FF688F"/></linearGradient><linearGradient id="f" x1="24.436" y1="24.127" x2="24.436" y2="40.578" gradientUnits="userSpaceOnUse"><stop offset="0" stop-color="#00ACE6"/><stop offset="1" stop-color="#408DF0"/></linearGradient><clipPath id="a"><path fill="#fff" d="M0 0h212v70H0z"/></clipPath></defs></svg>