<svg width="173" height="44" fill="none" xmlns="http://www.w3.org/2000/svg"><g clip-path="url(#a)"><path d="M82.765 14.558c.848.847 1.28 2.02 1.28 3.52 0 .402-.045.907-.134 1.53l-1.533 8.572h-5.162l1.399-7.903c.03-.282.06-.475.06-.61 0-.593-.18-1.054-.551-1.396-.372-.326-.863-.505-1.503-.505-.758 0-1.383.223-1.904.654-.52.43-.848 1.055-.982 1.842l-1.428 7.903h-5.162l1.428-7.903c.03-.282.06-.46.06-.55 0-.609-.179-1.084-.55-1.426-.372-.341-.878-.505-1.533-.505-.758 0-1.398.223-1.919.669-.52.445-.863 1.084-.996 1.901v-.104l-1.399 7.933h-5.162l2.574-14.736h5.177l-.402 2.228a6.145 6.145 0 0 1 2.068-1.723c.833-.431 1.755-.639 2.782-.639 1.1 0 2.038.253 2.781.743.76.49 1.295 1.188 1.607 2.11a7.708 7.708 0 0 1 2.425-2.066 6.158 6.158 0 0 1 3.005-.772c1.606-.03 2.826.401 3.674 1.233zM90.485 13.429l1.71 8.244 4.389-8.244h5.712L89.116 35.22h-5.682l4.968-7.665-3.66-14.112h5.743v-.015zM116.341 14.024c1.026.609 1.844 1.5 2.425 2.659.58 1.158.877 2.51.877 4.055s-.297 2.896-.877 4.04c-.581 1.144-1.399 2.02-2.425 2.645-1.027.609-2.202.92-3.526.92-1.443 0-2.663-.37-3.674-1.099-1.012-.728-1.696-1.693-2.068-2.882v10.83h-2.469V13.295h2.469v3.788c.387-1.189 1.071-2.154 2.068-2.882.996-.728 2.231-1.1 3.674-1.1 1.324 0 2.499.313 3.526.921zm-6.828 1.93a4.66 4.66 0 0 0-1.815 1.902c-.432.832-.655 1.783-.655 2.867s.223 2.035.655 2.852a4.659 4.659 0 0 0 1.815 1.902 5.115 5.115 0 0 0 2.603.683c1.532 0 2.767-.476 3.674-1.441.908-.966 1.369-2.303 1.369-3.996s-.461-3.03-1.369-3.996c-.907-.966-2.142-1.44-3.674-1.44-.967 0-1.83.222-2.603.668zM135.768 13.296V28.15h-2.469v-3.49c-.387 1.203-1.056 2.139-2.023 2.777-.967.639-2.098.966-3.377.966-1.711 0-3.109-.55-4.18-1.664-1.071-1.114-1.592-2.703-1.592-4.783v-8.66h2.469v8.407c0 1.486.387 2.615 1.146 3.417.759.802 1.785 1.203 3.094 1.203 1.354 0 2.44-.43 3.258-1.307.818-.876 1.22-2.154 1.22-3.832V13.28h2.454v.015zM141.749 8.126V28.15h-2.47V8.126h2.47zM153.948 14.41c1.027.876 1.637 2.05 1.86 3.535h-2.365a3.445 3.445 0 0 0-1.101-2.184c-.625-.58-1.458-.846-2.514-.846-.893 0-1.577.208-2.068.638-.491.431-.744.995-.744 1.723 0 .535.164.98.506 1.308.327.326.744.579 1.25.757.49.178 1.175.357 2.052.55 1.101.252 1.994.505 2.663.772.685.268 1.25.684 1.741 1.263.476.58.714 1.352.714 2.332 0 1.203-.461 2.199-1.369 2.956-.907.758-2.127 1.144-3.644 1.144-1.771 0-3.214-.43-4.329-1.277-1.116-.847-1.786-2.036-1.979-3.55h2.38c.09.905.476 1.633 1.175 2.198.7.564 1.607.832 2.753.832.847 0 1.517-.223 1.993-.654.476-.43.714-.995.714-1.708 0-.58-.179-1.04-.521-1.382a3.38 3.38 0 0 0-1.279-.787c-.506-.178-1.205-.372-2.083-.565-1.1-.252-1.978-.505-2.648-.757a4.098 4.098 0 0 1-1.681-1.203c-.461-.55-.684-1.293-.684-2.229 0-1.247.461-2.243 1.384-3.015.922-.773 2.171-1.144 3.763-1.144 1.681-.015 3.035.416 4.061 1.292zM172.201 21.243H160.3c.059 1.693.535 2.97 1.443 3.817.907.847 2.023 1.278 3.347 1.278 1.19 0 2.187-.297 2.99-.906.803-.61 1.294-1.412 1.473-2.422h2.633a6.249 6.249 0 0 1-1.205 2.763c-.625.817-1.428 1.441-2.425 1.902-.997.445-2.112.683-3.362.683-1.428 0-2.693-.312-3.793-.92-1.101-.61-1.964-1.486-2.589-2.645-.625-1.144-.937-2.496-.937-4.04 0-1.545.312-2.912.937-4.056a6.562 6.562 0 0 1 2.589-2.659c1.1-.609 2.365-.92 3.793-.92 1.443 0 2.707.311 3.779.92 1.071.61 1.904 1.441 2.469 2.466.565 1.025.848 2.169.848 3.417.015.49-.03.95-.089 1.322zm-2.931-3.952c-.416-.742-.982-1.292-1.711-1.649a5.246 5.246 0 0 0-2.35-.534c-1.354 0-2.499.416-3.422 1.262-.922.832-1.413 2.065-1.487 3.7h9.506c.059-1.115-.119-2.036-.536-2.779z" fill="#fff"/><path d="M19.84.61a2.54 2.54 0 0 0-2.543 2.54v37.552a2.54 2.54 0 0 0 2.544 2.54 2.54 2.54 0 0 0 2.543-2.54V3.15A2.55 2.55 0 0 0 19.841.61z" fill="url(#b)"/><path d="M36.56 26.546a2.542 2.542 0 0 0 2.543-2.54 2.542 2.542 0 0 0-2.544-2.54 2.542 2.542 0 0 0-2.543 2.54 2.542 2.542 0 0 0 2.543 2.54z" fill="url(#c)"/><path d="M3.104 22.371a2.542 2.542 0 0 0 2.544-2.54 2.542 2.542 0 0 0-2.544-2.54 2.542 2.542 0 0 0-2.543 2.54 2.542 2.542 0 0 0 2.543 2.54z" fill="url(#d)"/><path d="M28.2 21.45a2.54 2.54 0 0 0-2.544 2.54v8.35a2.54 2.54 0 0 0 2.544 2.54 2.55 2.55 0 0 0 2.544-2.54v-8.35a2.55 2.55 0 0 0-2.544-2.54z" fill="url(#e)"/><path d="M11.48 8.943a2.54 2.54 0 0 0-2.544 2.54v8.348a2.54 2.54 0 0 0 2.543 2.54 2.55 2.55 0 0 0 2.544-2.54v-8.348a2.54 2.54 0 0 0-2.544-2.54z" fill="url(#f)"/></g><defs><linearGradient id="b" x1="19.836" y1=".681" x2="19.836" y2="43.111" gradientUnits="userSpaceOnUse"><stop offset="0" stop-color="#01E3CA"/><stop offset="1" stop-color="#00ACE6"/></linearGradient><linearGradient id="c" x1="36.558" y1="26.355" x2="36.558" y2="21.428" gradientUnits="userSpaceOnUse"><stop offset="0" stop-color="#DB50D1"/><stop offset=".999" stop-color="#FF688F"/></linearGradient><linearGradient id="d" x1="3.111" y1="17.318" x2="3.111" y2="22.32" gradientUnits="userSpaceOnUse"><stop offset="0" stop-color="#DB50D1"/><stop offset="1" stop-color="#C353EA"/></linearGradient><linearGradient id="e" x1="28.197" y1="21.325" x2="28.197" y2="34.607" gradientUnits="userSpaceOnUse"><stop offset="0" stop-color="#FF8C73"/><stop offset=".999" stop-color="#FF688F"/></linearGradient><linearGradient id="f" x1="11.473" y1="8.861" x2="11.473" y2="22.266" gradientUnits="userSpaceOnUse"><stop offset="0" stop-color="#00ACE6"/><stop offset="1" stop-color="#408DF0"/></linearGradient><clipPath id="a"><path fill="#fff" d="M0 0h173v44H0z"/></clipPath></defs></svg>