<svg width="210" height="77" viewBox="0 0 210 77" fill="none" xmlns="http://www.w3.org/2000/svg">
<path d="M105.191 54.2319C110.059 52.8828 113.725 50.8298 116.335 48.1023L137.1 48.0436C135.546 53.6454 130.706 54.2319 130.706 54.2319H105.191ZM121.673 38.0133C121.321 39.3917 120.881 40.6529 120.383 41.8847H131.352C131.352 41.8847 136.191 41.2981 137.716 35.6964L122.172 35.7257C122.054 36.4589 121.878 37.2214 121.673 38.0133ZM143.728 22.0293H112.845C117.333 23.3197 120.588 25.5194 121.849 29.2734H135.311C135.34 29.2734 144.373 29.3321 143.728 22.0293ZM154.081 36.019L154.756 34.5819C156.105 31.9423 158.451 29.596 162.469 29.2734H172.939C172.939 29.2734 181.972 29.3321 181.327 22.0293H153.583C147.042 22.0293 142.262 29.0095 140.062 34.5819L139.564 36.019C137.305 43.2631 137.687 54.2319 147.658 54.2319H170.417C170.417 54.2319 175.256 53.6747 176.811 48.073C176.811 48.073 164.991 49.2168 156.662 48.2489C156.662 48.2489 152.409 47.6624 152.791 42.6179C152.791 42.6472 152.791 39.3624 154.081 36.019ZM120.001 29.2734C118.418 25.7247 114.693 23.877 109.824 22.9092C107.449 22.4399 104.751 22.1759 101.935 22.0293H78.4137C78.4137 22.0293 77.6512 24.9035 76.5954 28.7748L90.7023 27.3084C90.7023 27.3084 96.1868 26.7512 99.2369 26.7512C104.193 26.7512 106.481 29.86 106.276 34.5525L106.129 35.9896C106.041 36.6935 105.894 37.3681 105.689 38.1306C103.754 45.4334 99.4129 49.3048 92.9313 49.3048C92.1981 49.3048 88.4441 49.3341 86.7723 49.3048C84.8953 49.2461 85.2473 48.4836 85.7752 46.2253L88.4147 35.9896L88.796 34.5525L89.9105 30.2706L90.2038 29.2148L75.4809 32.9981C75.3342 33.5261 75.2169 34.0246 75.0703 34.5525L74.689 35.9896C72.9293 42.6179 71.1696 49.2754 71.023 50.1553C70.4657 53.6747 73.0466 54.1146 76.742 54.3493C77.7978 54.4079 92.9313 54.6425 95.9228 54.3493C96.5387 54.2906 97.0959 54.2319 97.6825 54.1733C105.425 53.2934 110.734 51.2991 114.341 48.073C116.277 46.3133 117.743 44.2603 118.799 41.7967C119.327 40.5942 119.767 39.3331 120.119 37.9546C120.295 37.2508 120.441 36.5762 120.559 35.9603L120.735 34.5232C120.94 32.4996 120.647 30.7398 120.001 29.2734Z" fill="#F02739"/>
<path d="M75.7742 22.1466L72.4894 34.5819L72.1082 36.019L67.269 54.3786H53.7192L59.2623 36.019L59.7022 34.5819L61.0807 29.9773L57.8839 34.5819L56.8867 36.019L44.1875 54.3786H40.3748C37.6766 54.3786 35.125 52.9415 34.3918 46.7825L33.16 36.019L32.984 34.5819L32.4268 29.86L31.195 34.5819L30.7844 36.019L25.9452 54.3786H17L21.8392 36.019L22.2205 34.5819L25.5052 22.1466H44.5687L46.7977 36.8988C46.8857 36.7815 46.9737 36.6642 47.0617 36.5469C47.8829 35.3738 48.7041 34.1713 49.5252 32.9982C50.6104 31.4438 51.6956 29.86 52.7807 28.3056C53.1913 27.719 53.5726 27.1618 53.9832 26.5752C54.6284 25.666 55.3323 24.9035 56.1828 24.1703C56.8867 23.5837 57.6199 23.0265 58.4998 22.7332C60.0835 22.2346 61.8432 22.176 63.4856 22.1466H75.7742ZM185.199 27.0738H185.873V22.5572H187.428V22H183.674V22.5572H185.199V27.0738ZM192.355 27.0738H193L192.677 22H191.827L190.918 24.4343C190.683 25.0795 190.507 25.6367 190.39 26.1353H190.36C190.243 25.6074 190.067 25.0502 189.862 24.4343L189.011 22H188.19L187.838 27.0738H188.454L188.601 24.9035C188.659 24.141 188.689 23.2904 188.689 22.6746H188.718C188.865 23.2611 189.07 23.9357 189.305 24.6396L190.126 27.0445H190.624L191.504 24.5809C191.768 23.877 191.974 23.2611 192.149 22.6452H192.179C192.179 23.2904 192.208 24.1116 192.267 24.8155L192.355 27.0738Z" fill="#13202A"/>
</svg>
