<svg width="50" height="50" fill="none" xmlns="http://www.w3.org/2000/svg"><g filter="url(#a)"><rect width="50" height="50" rx="12" fill="#252639"/><rect x=".2" y=".2" width="49.6" height="49.6" rx="11.8" stroke="url(#b)" stroke-opacity=".4" stroke-width=".4"/><path d="M19.443 15.315a.937.937 0 0 1 .857.78l2.25 13.416 2.799-9.77a.937.937 0 0 1 1.802.002l1.898 6.642 1.09-1.859a.938.938 0 0 1 .808-.463h2.321a3.126 3.126 0 0 1 6.107.937 3.125 3.125 0 0 1-6.107.938h-1.784l-1.925 3.286a.938.938 0 0 1-1.71-.216l-1.6-5.6-3.037 10.6a.937.937 0 0 1-1.826-.103l-2.3-13.707-1.64 5.09a.938.938 0 0 1-.893.65H12.5a.937.937 0 1 1 0-1.875h3.37l2.613-8.1a.937.937 0 0 1 .96-.648z" fill="#fff"/></g><defs><linearGradient id="b" x1="-43.023" y1="-46.23" x2="60.898" y2="54.499" gradientUnits="userSpaceOnUse"><stop stop-color="#A4A5C5"/><stop offset="1" stop-color="#3F4168"/></linearGradient><filter id="a" x="0" y="0" width="50" height="50" filterUnits="userSpaceOnUse" color-interpolation-filters="sRGB"><feFlood flood-opacity="0" result="BackgroundImageFix"/><feBlend in="SourceGraphic" in2="BackgroundImageFix" result="shape"/><feColorMatrix in="SourceAlpha" values="0 0 0 0 0 0 0 0 0 0 0 0 0 0 0 0 0 0 127 0" result="hardAlpha"/><feMorphology radius="4.417" in="SourceAlpha" result="effect1_innerShadow_182_373"/><feOffset/><feGaussianBlur stdDeviation="3.621"/><feComposite in2="hardAlpha" operator="arithmetic" k2="-1" k3="1"/><feColorMatrix values="0 0 0 0 0.266667 0 0 0 0 0.27451 0 0 0 0 0.439216 0 0 0 0.18 0"/><feBlend in2="shape" result="effect1_innerShadow_182_373"/></filter></defs></svg>