<svg width="236" height="77" viewBox="0 0 236 77" fill="none" xmlns="http://www.w3.org/2000/svg">
<path d="M46.1786 18.8603C37.1979 12.4062 22.6068 14.1506 16.0219 23.3025C13.3584 27.0043 12.426 31.8019 13.3426 36.3186C14.3223 41.146 18.3266 44.7786 18.859 49.6791C19.1337 52.2058 18.649 55.2009 16.8311 57.5399C16.7894 57.5937 16.8118 57.6773 16.8794 57.6857C20.9873 58.2244 37.0534 57.5192 45.1968 50.7481C54.6307 42.9045 57.0513 26.6733 46.1789 18.8596L46.1786 18.8603Z" fill="#FDC724"/>
<path d="M25.9671 29.2644C23.8793 25.4856 26.1382 23.77 31.3767 23.1698C37.2892 22.4922 44.9969 25.008 40.3542 34.3476C37.7551 39.5766 29.8199 40.8055 29.8199 40.8055L29.7481 42.3402C29.7481 42.3402 47.6478 39.6128 47.2866 29.2714C46.9534 19.7371 34.4693 20.3665 30.648 20.8624C26.3671 21.3582 23.0817 23.9587 22.5602 25.0758C20.7349 28.0604 23.2556 31.045 25.9674 29.2647L25.9671 29.2644Z" fill="black"/>
<path d="M31.3762 24.5516C30.6023 24.6401 29.8953 24.754 29.2559 24.8945L23.3787 52.2058H28.3686L34.2861 24.4865C33.3089 24.4173 32.3198 24.4437 31.3762 24.5516Z" fill="black"/>
<path d="M60.2988 21.117C62.1692 20.741 64.741 20.5066 67.2201 20.5066C71.1947 20.5066 74.2348 20.9754 76.48 22.9957C78.4911 24.7327 79.3336 27.4551 79.3343 30.0851C79.335 33.7479 78.1667 36.3769 76.3428 38.2074C74.2859 40.1806 71.0127 41.0254 68.5805 41.0254H67.5046L67.5067 52.2946H60.3048L60.2988 21.1174V21.117ZM67.5029 35.1557C67.7839 35.2021 68.0643 35.2021 68.345 35.2021C71.2447 35.2021 72.1799 33.0426 72.1796 30.7426C72.1785 28.2065 71.1495 26.3285 68.8108 26.3285C68.3432 26.3285 67.8294 26.422 67.5011 26.5629L67.5029 35.1557Z" fill="black"/>
<path d="M82.2347 29.1921H88.2628L88.6373 32.4796H88.8245C89.9463 29.8971 91.7698 28.8179 93.2664 28.8179C94.0147 28.8179 94.3888 28.8643 94.8099 28.9577L94.8113 36.0953C94.344 36.0008 93.8754 36.0008 93.2202 36.0008C92.3788 36.0008 90.6025 36.3768 89.807 38.6297C89.6208 39.1003 89.4804 39.9922 89.4804 41.0253L89.4825 52.2945H82.2344C82.2344 52.2945 82.3296 31.5406 82.2344 29.1925L82.2347 29.1921Z" fill="black"/>
<path d="M97.5829 52.2942L97.578 30.4158H104.826L104.831 52.2942H97.5829ZM104.685 24.2656C104.733 26.4722 103.096 28.0212 101.038 28.0212C99.1211 28.0212 97.5307 26.4722 97.5769 24.2656C97.5297 21.9182 99.2128 20.4619 101.13 20.4619C103.047 20.4619 104.685 21.9182 104.685 24.2656Z" fill="black"/>
<path d="M122.736 51.7125C121.193 52.3201 119.662 52.5974 117.838 52.6054C110.701 52.636 107.698 48.2732 107.688 40.7613C107.677 33.1725 111.911 28.4137 118.862 28.9102C120.402 29.0202 122.176 29.3558 122.736 29.5902L121.435 35.1085C120.92 34.9675 120.219 34.7795 119.284 34.7795C116.618 34.7795 114.842 36.9587 114.843 40.7613C114.843 44.4241 116.481 46.7062 119.146 46.7062C119.988 46.7062 120.689 46.5646 121.297 46.2838L122.737 51.7125H122.736Z" fill="black"/>
<path d="M130.617 43.5028C130.71 45.6159 132.732 47.1287 135.491 47.1287C137.315 47.1287 138.904 46.7527 140.121 46.3774L141.01 51.5418C139.326 52.1522 136.708 52.6052 134.183 52.6052C127.589 52.6052 123.894 48.8295 123.893 41.551C123.891 33.6625 126.52 28.8171 133.71 28.8171C139.595 28.8171 142.082 32.0463 142.083 39.7932C142.084 41.7654 141.991 42.7982 141.85 43.5024H130.616L130.617 43.5028ZM136.207 38.4793C136.206 36.2253 135.761 34.0283 133.537 34.0283C131.312 34.0283 130.616 36.5079 130.616 38.4793H136.207Z" fill="black"/>
<path d="M146.855 44.6388C147.784 45.2822 149.764 47.5467 152.767 47.5467C155.771 47.5467 157.651 46.1449 157.651 43.1744C157.651 41.4693 154.994 39.2863 152.145 37.822C148.334 35.8625 145.026 33.3309 144.737 30.2072C144.227 24.6994 147.604 20.7935 153.645 20.7935C158.272 20.7935 160.962 23.6339 161.774 24.5069L159.018 28.0614C158.027 27.3516 156.17 25.41 153.852 25.41C150.565 25.41 149.46 27.3727 149.822 29.432C150.063 30.8042 152.114 32.3396 155.225 33.9845C159.47 36.2283 162.034 38.3934 162.55 42.1665C163.336 47.9136 159.549 52.6057 152.843 52.6057C147.455 52.6057 145.184 49.9838 143.617 48.5177L146.855 44.6388Z" fill="black"/>
<path d="M164.629 52.2942L164.611 20.6289H169.454L169.416 33.1804H169.498C170.795 30.8481 172.772 29.3405 175.587 29.3405C178.403 29.3405 180.967 31.2603 181.666 35.3286C181.861 36.4704 182.004 38.0243 182.007 39.2585L181.975 52.2939H177.173L177.185 39.8685C177.16 39.0009 177.12 37.7966 176.931 36.6988C176.642 35.0081 175.711 33.9275 173.889 33.9275C171.53 33.9275 169.413 37.0354 169.433 41.743L169.431 52.2942H164.629H164.629Z" fill="black"/>
<path d="M204.457 61.1538L204.439 29.7523H208.698V33.0107H208.781C210.064 30.3589 212.29 29.3408 214.898 29.3408C219.245 29.3408 221.948 33.2718 222.692 37.6142C224.025 45.384 221.003 51.2228 214.238 52.4351C212.501 52.7465 209.972 52.4763 209.244 51.9273V61.1541H204.457L204.457 61.1538ZM209.243 47.9223C209.856 48.2709 211.258 48.5292 212.962 48.247C216.638 47.6383 219.008 44.0535 217.956 38.0246C217.597 35.9692 216.14 33.6833 213.78 33.6833C211.42 33.6833 209.243 36.8288 209.243 39.9985V47.9223Z" fill="black"/>
<path d="M193.286 29.2446C187.875 29.2446 183.488 34.474 183.488 40.925C183.488 47.3759 187.875 52.6053 193.286 52.6053C198.696 52.6053 203.083 47.3756 203.083 40.925C203.083 34.4744 198.697 29.2446 193.286 29.2446ZM193.257 48.4917C190.63 48.4917 188.5 45.1254 188.5 40.9731C188.5 36.8208 190.63 33.4546 193.257 33.4546C195.884 33.4546 198.013 36.8208 198.013 40.9731C198.013 45.1254 195.884 48.4917 193.257 48.4917Z" fill="black"/>
</svg>
