<?xml version="1.0" encoding="UTF-8"?>
<svg width="41px" height="28px" viewBox="0 0 41 28" version="1.1" xmlns="http://www.w3.org/2000/svg" xmlns:xlink="http://www.w3.org/1999/xlink">
    <title>Path</title>
    <g id="Page-1" stroke="none" stroke-width="1" fill="none" fill-rule="evenodd">
        <path d="M11.617,0.00356414553 C12.2471895,0.0438142068 12.7685209,0.509008563 12.88,1.13056415 L16.197,20.5175641 L20.323,6.40056415 C20.493,5.81956415 21.035,5.41856415 21.653,5.41856415 C22.269,5.41856415 22.811,5.82056415 22.981,6.40156415 L25.778,16.0015641 L27.383,13.3145641 C27.631,12.8995641 28.085,12.6445641 28.576,12.6445641 L31.997,12.6445641 C32.584,10.8125641 34.331,9.48356415 36.393,9.48356415 C38.937,9.48356415 41,11.5055641 41,13.9995641 C41,16.4935641 38.937,18.5155641 36.393,18.5155641 C34.33,18.5155641 32.584,17.1865641 31.997,15.3545641 L29.367,15.3545641 L26.53,20.1045641 C26.2451785,20.5751742 25.7096188,20.8335445 25.164,20.7635641 C24.6189132,20.699236 24.1644041,20.3166777 24.008,19.7905641 L21.65,11.6995641 L17.173,27.0175641 C16.9884633,27.6313157 16.4056641,28.0372455 15.766,27.9975641 C15.1267828,27.9669704 14.593612,27.4985269 14.481,26.8685641 L11.091,7.06056415 L8.672,14.4155641 C8.48189245,14.9792927 7.95191235,15.3577348 7.357,15.3545641 L1.382,15.3545641 C0.619,15.3545641 0,14.7475641 0,13.9995641 C0,13.2515641 0.619,12.6445641 1.382,12.6445641 L6.35,12.6445641 L10.201,0.938564146 C10.397,0.343564146 10.982,-0.0414358545 11.617,0.00356414553 Z" id="Path" fill="#FFFFFF" fill-rule="nonzero"></path>
    </g>
</svg>