<svg width="65" height="65" fill="none" xmlns="http://www.w3.org/2000/svg"><path fill="#fff" d="M0 0h64.896v62.439H0z"/><path d="M45.984 41.34a3.744 3.744 0 0 0 3.57-3.456v-.228l1.327-26.86v-.043a.774.774 0 0 0-.774-.774h-8.562C41.335 4.43 37.345 0 32.455 0c-4.888 0-8.879 4.424-9.088 9.98h-8.578a.774.774 0 0 0-.774.773v.062l1.215 26.756v.336c.186 1.862 1.549 3.36 3.395 3.43h27.336l.023.004zM32.456 2.416c3.565 0 6.468 3.36 6.603 7.564H25.852c.136-4.22 3.039-7.564 6.604-7.564z" fill="#EE4E2C"/><path d="M39.25 30.963a5.396 5.396 0 0 1-3.353 4.402 8.455 8.455 0 0 1-3.577.611 11.614 11.614 0 0 1-4.873-1.254 12.165 12.165 0 0 1-1.955-1.335c-.14-.117-.209-.217-.077-.387.131-.17.7-1.022.774-1.162a.313.313 0 0 1 .492-.05l.243.186a9.445 9.445 0 0 0 5.393 2.051c2.616-.035 4.517-1.2 4.854-3.007.387-1.99-1.216-3.697-4.258-4.645a36.822 36.822 0 0 1-3.871-1.549c-2.13-1.241-3.123-2.866-2.98-4.873.216-2.776 2.806-4.858 6.096-4.87 1.49.001 2.966.302 4.34.883a11.42 11.42 0 0 1 1.69.917.333.333 0 0 1 .117.484c-.132.217-.515.817-.674 1.069-.112.17-.255.19-.453.065a9.116 9.116 0 0 0-4.97-1.548c-2.245.043-3.94 1.37-4.053 3.19-.03 1.64 1.227 2.833 3.895 3.743 5.508 1.757 7.606 3.84 7.2 7.08z" fill="#fff"/><path d="M5.28 50.652c-1.858-.592-2.697-1.372-2.7-2.445.053-1.191 1.165-2.089 2.68-2.144a6.09 6.09 0 0 1 3.39 1 .358.358 0 0 0 .566-.106c.016-.03.074-.111.265-.39.183-.266.266-.364.266-.398.132-.25.132-.382-.141-.573-.4-.253-.82-.47-1.255-.65a8.133 8.133 0 0 0-3.167-.59c-2.431.053-4.334 1.63-4.46 3.716-.079 1.5.688 2.705 2.275 3.591.916.411 1.855.766 2.814 1.062 2.123.618 3.204 1.744 2.98 3.055-.204 1.194-1.464 1.999-3.256 2.052a6.545 6.545 0 0 1-3.758-1.357l-.088-.066-.088-.066c-.25-.173-.43-.173-.602.087l-.282.428-.265.406c-.146.217-.122.334.093.515.45.362.935.68 1.447.947a8.46 8.46 0 0 0 3.564.85 6.212 6.212 0 0 0 2.617-.494 4.016 4.016 0 0 0 2.44-3.315c.26-2.41-1.32-3.926-5.336-5.115zM16.545 50.05c-.965 0-1.905.31-2.68.883v-6.232c0-.244-.096-.337-.338-.337H12.4c-.265 0-.337.09-.337.337v14.487c0 .239.069.337.337.337h1.128c.247 0 .337-.103.337-.337v-4.733c0-1.616 1.208-2.633 2.681-2.633s2.68 1.017 2.68 2.655v4.722c0 .265.067.337.338.337h1.125c.266 0 .338-.064.338-.337v-4.746a4.47 4.47 0 0 0-4.48-4.404zM27.31 50.06a4.753 4.753 0 1 0 4.85 4.753 4.802 4.802 0 0 0-4.85-4.753zm0 7.758a3.007 3.007 0 1 1 3.071-3.007 3.038 3.038 0 0 1-3.07 3.007zM63.98 55.453h.024a.565.565 0 0 0 .53-.57V54.807c0-2.625-2.057-4.754-4.597-4.754-2.54 0-4.597 2.123-4.597 4.754 0 .195.012.39.035.584v.06c.123.938.53 1.815 1.165 2.514a4.884 4.884 0 0 0 2.726 1.505l.082.016.125.019a6.37 6.37 0 0 0 3.679-.563 4.56 4.56 0 0 0 .868-.568l.06-.056c.266-.265.266-.38.115-.618a17.297 17.297 0 0 0-.555-.844c-.14-.175-.265-.215-.443-.056-.032.027-.061.045-.075.061a4.174 4.174 0 0 1-3.668.873 4.071 4.071 0 0 1-.698-.265 2.94 2.94 0 0 1-1.592-2.03h6.816v.013zm-6.705-1.755a2.74 2.74 0 0 1 2.654-1.916 2.947 2.947 0 0 1 2.718 1.916h-5.372zM38.418 50.036a4.753 4.753 0 0 0-3.015 1.061v-.735c0-.265-.07-.337-.337-.337h-1.062c-.265 0-.337.075-.337.337V64.05c0 .25.069.337.337.337h1.062c.265 0 .337-.087.337-.337v-5.574a4.758 4.758 0 1 0 3.015-8.435v-.005zm0 7.758a3.012 3.012 0 0 1-3.015-2.92v-.153a3.015 3.015 0 1 1 3.015 3.087v-.014zM53.888 54.806c0-2.625-2.057-4.754-4.597-4.754-2.54 0-4.598 2.124-4.598 4.754 0 .195.012.39.035.584v.061c.123.937.53 1.814 1.165 2.514a4.883 4.883 0 0 0 2.726 1.505l.082.016.125.018a6.37 6.37 0 0 0 3.7-.56 4.56 4.56 0 0 0 .868-.568l.061-.056c.266-.265.266-.38.114-.618-.355-.568-.555-.844-.555-.844-.14-.175-.265-.215-.443-.056-.032.027-.06.045-.074.061a4.175 4.175 0 0 1-3.687.876 4.076 4.076 0 0 1-.698-.265 2.94 2.94 0 0 1-1.593-2.03h6.84a.566.566 0 0 0 .531-.572v-.04c0-.013-.002-.005-.002-.026zm-7.26-1.107a2.739 2.739 0 0 1 2.655-1.916 2.947 2.947 0 0 1 2.712 1.916h-5.367z" fill="#EE4E2C"/></svg>