<svg width="50" height="50" fill="none" xmlns="http://www.w3.org/2000/svg"><g filter="url(#a)"><rect width="50" height="50" rx="12" fill="#252639"/><rect x=".2" y=".2" width="49.6" height="49.6" rx="11.8" stroke="url(#b)" stroke-opacity=".4" stroke-width=".4"/><path d="M14.167 22.562a.818.818 0 0 1-.813-.812V19.04a5.694 5.694 0 0 1 5.688-5.687h2.708c.444 0 .813.368.813.813a.818.818 0 0 1-.813.812h-2.708a4.064 4.064 0 0 0-4.063 4.063v2.708a.818.818 0 0 1-.812.812zM35.834 22.562a.818.818 0 0 1-.813-.812V19.04a4.064 4.064 0 0 0-4.062-4.062H28.25a.818.818 0 0 1-.812-.813c0-.444.368-.812.813-.812h2.708a5.694 5.694 0 0 1 5.687 5.688v2.708a.818.818 0 0 1-.812.812zM30.958 36.645h-1.625a.818.818 0 0 1-.812-.812c0-.444.368-.813.812-.813h1.625a4.064 4.064 0 0 0 4.063-4.062v-1.625c0-.444.368-.813.812-.813.445 0 .813.369.813.813v1.625a5.694 5.694 0 0 1-5.688 5.688zM21.75 36.646h-2.708a5.694 5.694 0 0 1-5.688-5.688V28.25c0-.444.369-.813.813-.813.444 0 .812.369.812.813v2.708a4.064 4.064 0 0 0 4.063 4.063h2.708c.444 0 .813.368.813.812a.818.818 0 0 1-.813.813z" fill="#fff"/><path d="M21.75 17.688h-2.167c-1.235 0-1.895.65-1.895 1.895v2.167c0 1.246.66 1.896 1.895 1.896h2.167c1.235 0 1.896-.65 1.896-1.896v-2.167c0-1.245-.661-1.895-1.896-1.895zM30.417 17.688H28.25c-1.235 0-1.895.65-1.895 1.895v2.167c0 1.246.66 1.896 1.895 1.896h2.167c1.235 0 1.896-.65 1.896-1.896v-2.167c0-1.245-.66-1.895-1.896-1.895zM21.75 26.354h-2.167c-1.235 0-1.895.65-1.895 1.896v2.166c0 1.246.66 1.896 1.895 1.896h2.167c1.235 0 1.896-.65 1.896-1.895V28.25c0-1.246-.661-1.896-1.896-1.896zM30.417 26.354H28.25c-1.235 0-1.895.65-1.895 1.896v2.166c0 1.246.66 1.896 1.895 1.896h2.167c1.235 0 1.896-.65 1.896-1.895V28.25c0-1.246-.66-1.896-1.896-1.896z" fill="#fff"/></g><defs><linearGradient id="b" x1="-43.023" y1="-46.23" x2="60.898" y2="54.499" gradientUnits="userSpaceOnUse"><stop stop-color="#A4A5C5"/><stop offset="1" stop-color="#3F4168"/></linearGradient><filter id="a" x="0" y="0" width="50" height="50" filterUnits="userSpaceOnUse" color-interpolation-filters="sRGB"><feFlood flood-opacity="0" result="BackgroundImageFix"/><feBlend in="SourceGraphic" in2="BackgroundImageFix" result="shape"/><feColorMatrix in="SourceAlpha" values="0 0 0 0 0 0 0 0 0 0 0 0 0 0 0 0 0 0 127 0" result="hardAlpha"/><feMorphology radius="4.417" in="SourceAlpha" result="effect1_innerShadow_182_378"/><feOffset/><feGaussianBlur stdDeviation="3.621"/><feComposite in2="hardAlpha" operator="arithmetic" k2="-1" k3="1"/><feColorMatrix values="0 0 0 0 0.266667 0 0 0 0 0.27451 0 0 0 0 0.439216 0 0 0 0.18 0"/><feBlend in2="shape" result="effect1_innerShadow_182_378"/></filter></defs></svg>