<svg width="61" height="60" fill="none" xmlns="http://www.w3.org/2000/svg"><rect x=".5" width="60" height="60" rx="30" fill="url(#a)"/><path opacity=".4" d="M42.386 28.655v8.236a6.878 6.878 0 0 1-6.875 6.875H23.494a6.878 6.878 0 0 1-6.875-6.875v-8.14c1.045 1.128 2.53 1.774 4.139 1.774 1.732 0 3.396-.866 4.441-2.255.935 1.389 2.53 2.255 4.304 2.255 1.76 0 3.327-.825 4.276-2.2 1.059 1.361 2.695 2.2 4.4 2.2 1.664 0 3.176-.674 4.207-1.87z" fill="#fff"/><path d="M33.615 14.713h-8.25l-1.018 10.12a5.347 5.347 0 0 0 .399 2.613c.797 1.87 2.667 3.08 4.757 3.08 2.118 0 3.947-1.183 4.772-3.066a5.472 5.472 0 0 0 .412-1.98v-.262l-1.072-10.505z" fill="#fff"/><path opacity=".6" d="m43.748 24.366-.4-3.809c-.577-4.152-2.46-5.844-6.49-5.844h-5.28l1.018 10.313c.014.137.028.289.028.55.082.715.302 1.375.632 1.966.99 1.815 2.915 2.984 4.923 2.984 1.828 0 3.478-.811 4.51-2.241.825-1.1 1.196-2.49 1.059-3.92zM22.064 14.713c-4.043 0-5.913 1.692-6.504 5.885l-.371 3.782c-.138 1.47.26 2.9 1.127 4.015 1.045 1.36 2.654 2.13 4.441 2.13 2.008 0 3.933-1.168 4.91-2.955a5.117 5.117 0 0 0 .66-2.077l1.072-10.766h-5.335v-.014z" fill="#fff"/><path d="M28.61 35.903c-1.747.178-3.067 1.663-3.067 3.423v4.441h7.906v-3.96c.014-2.873-1.677-4.235-4.84-3.904z" fill="#fff"/><defs><linearGradient id="a" x1="30.5" y1="0" x2="30.5" y2="60" gradientUnits="userSpaceOnUse"><stop stop-color="#01E3CA"/><stop offset="1" stop-color="#00ACE6"/></linearGradient></defs></svg>