<?xml version="1.0" encoding="UTF-8"?>
<svg width="37px" height="37px" viewBox="0 0 37 37" version="1.1" xmlns="http://www.w3.org/2000/svg" xmlns:xlink="http://www.w3.org/1999/xlink">
    <title>Combined Shape</title>
    <g id="Page-1" stroke="none" stroke-width="1" fill="none" fill-rule="evenodd">
        <path d="M2.033,22.45 C2.717,22.45 3.283,23.016 3.283,23.7 L3.283,27.866 C3.283,31.316 6.083,34.116 9.533,34.116 L13.7,34.116 C14.383,34.116 14.95,34.683 14.95,35.366 C14.9445603,36.0540901 14.3880901,36.6105603 13.7,36.616 L9.533,36.616 C4.717,36.616 0.783,32.7 0.783,27.866 L0.783,23.7 C0.783,23.016 1.35,22.45 2.033,22.45 Z M35.367,24.116 C36.05,24.116 36.617,24.683 36.617,25.366 L36.617,27.866 C36.617,32.7 32.683,36.616 27.867,36.616 L25.367,36.616 C24.6789099,36.6105603 24.1224397,36.0540901 24.117,35.366 C24.117,34.683 24.683,34.116 25.367,34.116 L27.867,34.116 C31.317,34.116 34.117,31.316 34.117,27.866 L34.117,25.366 C34.117,24.683 34.683,24.116 35.367,24.116 Z M13.7,20.783 C15.6,20.783 16.617,21.783 16.617,23.7 L16.617,27.033 C16.617,28.95 15.6,29.95 13.7,29.95 L10.367,29.95 C8.467,29.95 7.45,28.95 7.45,27.033 L7.45,23.7 C7.45,21.783 8.467,20.783 10.367,20.783 Z M27.034,20.783 C28.934,20.783 29.951,21.783 29.951,23.7 L29.951,27.033 C29.951,28.95 28.934,29.95 27.034,29.95 L23.701,29.95 C21.801,29.95 20.784,28.95 20.784,27.033 L20.784,23.7 C20.784,21.783 21.801,20.783 23.701,20.783 Z M13.7,7.45 C15.6,7.45 16.617,8.45 16.617,10.366 L16.617,13.7 C16.617,15.616 15.6,16.616 13.7,16.616 L10.367,16.616 C8.467,16.616 7.45,15.616 7.45,13.7 L7.45,10.366 C7.45,8.45 8.467,7.45 10.367,7.45 Z M27.034,7.45 C28.934,7.45 29.951,8.45 29.951,10.366 L29.951,13.7 C29.951,15.616 28.934,16.616 27.034,16.616 L23.701,16.616 C21.801,16.616 20.784,15.616 20.784,13.7 L20.784,10.366 C20.784,8.45 21.801,7.45 23.701,7.45 Z M13.7,0.783 C14.383,0.783 14.95,1.35 14.95,2.033 C14.9445603,2.72109014 14.3880901,3.2775603 13.7,3.283 L9.533,3.283 C6.083,3.283 3.283,6.083 3.283,9.533 L3.283,13.7 C3.2775603,14.3880901 2.72109014,14.9445603 2.033,14.95 C1.35,14.95 0.783,14.383 0.783,13.7 L0.783,9.533 C0.783,4.7 4.717,0.783 9.533,0.783 L13.7,0.783 Z M27.867,0.783 C32.684,0.783 36.617,4.7 36.617,9.533 L36.617,13.7 C36.6119003,14.3450845 36.1224965,14.8744874 35.4943721,14.9426251 L35.367,14.95 C34.6789099,14.9445603 34.1224397,14.3880901 34.117,13.7 L34.117,9.533 C34.117,6.083 31.317,3.283 27.867,3.283 L23.701,3.283 C23.0129099,3.2775603 22.4564397,2.72109014 22.451,2.033 C22.451,1.35 23.017,0.783 23.701,0.783 L27.867,0.783 Z" id="Combined-Shape" fill="#FFFFFF" fill-rule="nonzero"></path>
    </g>
</svg>