<svg width="25" height="25" viewBox="0 0 25 25" fill="none" xmlns="http://www.w3.org/2000/svg">
<g clip-path="url(#clip0_172_266)">
<path d="M7.68601 10.6155L5.35949 12.942C4.4906 13.8109 3.99094 14.9932 4.00007 16.2357C4.0092 17.4782 4.49793 18.6677 5.40805 19.5497C6.29001 20.4598 7.47973 20.9485 8.72204 20.9577C9.9927 20.967 11.147 20.4955 12.0159 19.6266L14.3424 17.3001M17.3141 14.3852L19.6406 12.0587C20.5095 11.1898 21.0092 10.0076 21 8.76506C20.9909 7.52255 20.5022 6.33308 19.5921 5.45107C18.7103 4.56931 17.5208 4.08055 16.2783 4.07142C15.0358 4.06229 13.8534 4.53359 12.9844 5.40251L10.6579 7.72902M8.97204 15.9662L15.9516 8.98663" stroke="black" stroke-width="3" stroke-linecap="round" stroke-linejoin="round"/>
</g>
<defs>
<clipPath id="clip0_172_266">
<rect width="25" height="25" fill="white"/>
</clipPath>
</defs>
</svg>
