<?xml version="1.0" encoding="UTF-8"?>
<svg width="32px" height="32px" viewBox="0 0 32 32" version="1.1" xmlns="http://www.w3.org/2000/svg" xmlns:xlink="http://www.w3.org/1999/xlink">
    <title>youtube</title>
    <g id="Page-1" stroke="none" stroke-width="1" fill="none" fill-rule="evenodd">
        <g id="youtube">
            <path d="M0,16 C0,7.16346667 7.16346667,0 16,0 C24.8365333,0 32,7.16346667 32,16 C32,24.8365333 24.8365333,32 16,32 C7.16346667,32 0,24.8365333 0,16 Z" id="Path" fill="#55597B"></path>
            <path d="M14.9958737,10.1396717 L16.0889645,10.1334409 L17.4753165,10.1453979 C18.7349433,10.1628607 20.5631515,10.2055476 21.9744,10.3098933 L22.2179157,10.3354739 C22.595584,10.3791968 23.1650133,10.4924725 23.6842667,11.0483893 C24.045302,11.4219498 24.2346667,12.1306214 24.3148262,12.5151721 L24.3626667,12.77936 C24.3626667,12.7793637 24.5333333,14.1909531 24.5333333,15.6019984 L24.5333333,16.9252944 C24.5333333,17.8877417 24.4539945,18.8499361 24.4035061,19.3648037 L24.355446,19.7947772 C24.3186196,20.0213876 24.1355608,21.0119496 23.6842667,21.4788997 C23.0352,22.1737934 22.3077333,22.1770635 21.9744,22.2179397 L21.4751226,22.2514558 C19.4241494,22.3765452 16.7977493,22.3963932 16.1495467,22.3994396 L13.699364,22.3643631 L12.5443526,22.3364509 C11.5965179,22.3097365 10.6938182,22.273234 10.1973333,22.22448 C9.8176,22.1519893 8.9648,22.173792 8.3152,21.478896 C7.95416471,21.1053355 7.76506574,20.396664 7.68506249,20.0121133 L7.63335838,19.7140005 C7.6077135,19.4913671 7.46666667,18.2085537 7.46666667,16.9252907 L7.46666667,15.6019947 C7.46666667,14.6399183 7.54600551,13.677589 7.59649386,13.162598 L7.6445336,12.7325119 C7.68126228,12.5059015 7.86390588,11.5153395 8.3152,11.0483893 C8.9648,10.3534946 9.69173333,10.3502245 10.0256,10.3098933 L10.6100012,10.2713572 C12.1149182,10.1828061 13.9053895,10.1510558 14.9958737,10.1396717 Z M14.2373333,13.628512 L14.2378667,18.5287467 L18.8485333,16.0870773 L14.2373333,13.628512 Z" id="Shape" fill="#FFFFFF"></path>
        </g>
    </g>
</svg>